<?xml version="1.0" standalone="no"?>
<!DOCTYPE svg PUBLIC "-//W3C//DTD SVG 1.1//EN" "http://www.w3.org/Graphics/SVG/1.1/DTD/svg11.dtd" >
<svg xmlns="http://www.w3.org/2000/svg">
  <metadata>Created by iconfont</metadata>
  <defs>
  <font id="iconfont" horiz-adv-x="1024">
    <font-face
      font-family="iconfont"
      font-weight="400"
      font-stretch="normal"
      units-per-em="1024"
      ascent="896"
      descent="-128"
    />
      <missing-glyph />
      
      <glyph glyph-name="plc-1" unicode="&#59472;" d="M694.208 782.208H329.216c-9.92 0-16.576 6.272-16.576 15.616V880.448C312.64 889.728 319.296 896 329.28 896h364.928c9.92 0 16.576-6.144 16.576-15.552v-82.752c0-7.744-8.256-15.488-16.576-15.488z m85.76 28.416h96.512c34.56 0 61.824-34.944 61.888-75.648V-52.35a74.24 74.24 0 0 0-74.56-75.648H148.8c-34.56 0-63.68 35.072-63.68 75.648V734.976c0 42.496 29.12 75.648 63.68 75.648h100.096v-48c0-22.144 18.176-38.72 38.144-38.72h454.784c21.824 0 38.208 18.56 38.208 38.72v48zM382.848 354.24c-6.464-36.352-6.464-40.128 25.984-58.752 6.72-4.096 13.568-8.576 20.672-12.352 16.64-12.16 39.168-9.024 52.352 7.232 24.96 22.72 32.512 22.4 58.88 0 10.368-7.36 21.184-14.08 32.384-20.032 23.808 15.872 47.104 29.696 68.224 46.272a32.32 32.32 0 0 1 3.008 27.328c-12.032 31.104 7.04 58.368 40.896 61.824 13.952 0 23.296 9.28 24 22.4 1.792 26.88 2.176 53.76 1.024 80.768 0 18.304-11.328 27.648-30.208 29.44-25.088-0.256-43.968 24.512-38.272 50.688 7.104 34.56 5.504 39.424-24.96 57.344l-19.712 11.52a39.872 39.872 0 0 1-58.176-5.12c-22.4-18.688-32.448-18.304-53.952 0a39.936 39.936 0 0 1-58.112 5.76l-32.512-18.944a33.344 33.344 0 0 1-15.872-41.152c10.048-34.496-4.544-56.64-39.68-60.416-14.592-1.856-24.32-10.048-24.96-23.872-1.6-27.2-1.6-54.528 0-81.856 0-17.6 11.072-26.624 29.248-28.352 24.896 0.256 43.84-23.68 39.68-49.664zM511.104 555.2c43.2 0 78.272-37.184 78.272-83.2 0.256-46.016-34.944-83.392-78.272-83.2-43.2 0-78.272 37.312-78.272 83.2 0 46.016 35.072 83.2 78.272 83.2zM438.4-42.56h169.92v60.225h-98.816V213.44H438.4v-256z m-60.992 88.577a62.72 62.72 0 0 1 18.368 29.632c3.776 12.288 5.76 27.52 5.632 45.695a152.96 152.96 0 0 1-5.056 42.624 60.16 60.16 0 0 1-17.28 28.416 75.008 75.008 0 0 1-32.192 16 210.816 210.816 0 0 1-49.856 5.056h-98.176v-256h71.168v67.84h26.048c19.072 0 35.328 1.537 48.576 4.737 13.376 3.2 24.256 8.576 32.64 16z m418.688-85.952c11.2 1.92 20.672 4.288 28.544 7.104h0.128v59.456c-10.176-3.456-20.48-5.76-30.848-7.104a233.6 233.6 0 0 0-30.528-2.048c-9.344 0-17.472 1.024-24.192 2.816a36.864 36.864 0 0 0-16.96 10.432 45.824 45.824 0 0 0-10.048 20.48 140.608 140.608 0 0 0-3.328 33.28c0 12.735 0.96 23.487 2.752 32.383a49.6 49.6 0 0 0 9.408 21.12 35.584 35.584 0 0 0 16.448 11.456c6.528 2.368 14.592 3.52 24.32 3.52 21.504 0 41.152-3.072 58.944-9.344v60.672a145.92 145.92 0 0 1-28.096 6.656 237.824 237.824 0 0 1-34.944 2.368 193.92 193.92 0 0 1-52.224-6.528 94.464 94.464 0 0 1-39.552-21.44 98.176 98.176 0 0 1-25.344-39.68c-5.952-16.32-8.96-36.48-8.96-60.351 0-26.048 3.136-47.36 9.28-64 6.144-16.64 14.848-29.696 26.176-39.168 11.328-9.344 24.96-15.872 40.96-19.52a247.936 247.936 0 0 1 88.064-2.56zM286.464 153.216c15.744 0 27.072-2.368 33.664-7.168 6.784-4.736 10.048-13.824 10.24-27.328 0-12.8-3.392-21.632-9.984-26.24-6.528-4.735-17.856-7.04-33.92-7.04H270.08v67.776h16.384z"  horiz-adv-x="1024" />
      
      <glyph glyph-name="plc" unicode="&#59664;" d="M366.933333 533.333333c-4.266667 4.266667-12.8 8.533333-17.066666 8.533334H302.933333v-55.466667h21.333334c8.533333 0 21.333333 0 29.866666 4.266667 4.266667 0 8.533333 4.266667 12.8 8.533333 4.266667 8.533333 4.266667 12.8 4.266667 17.066667 0 4.266667 0 12.8-4.266667 17.066666z m170.666667-294.4v-81.066666h81.066667v81.066666h-81.066667z m145.066667 0v-81.066666h81.066666v81.066666H682.666667z m-145.066667 0v-81.066666h81.066667v81.066666h-81.066667z m145.066667 0v-81.066666h81.066666v81.066666H682.666667zM366.933333 533.333333c-4.266667 4.266667-12.8 8.533333-17.066666 8.533334H302.933333v-55.466667h21.333334c8.533333 0 21.333333 0 29.866666 4.266667 4.266667 0 8.533333 4.266667 12.8 8.533333 4.266667 8.533333 4.266667 12.8 4.266667 17.066667 0 4.266667 0 12.8-4.266667 17.066666z m315.733334-294.4v-81.066666h81.066666v81.066666H682.666667z m-145.066667 0v-81.066666h81.066667v81.066666h-81.066667z m-170.666667 294.4c-4.266667 4.266667-12.8 8.533333-17.066666 8.533334H302.933333v-55.466667h21.333334c8.533333 0 21.333333 0 29.866666 4.266667 4.266667 0 8.533333 4.266667 12.8 8.533333 4.266667 8.533333 4.266667 12.8 4.266667 17.066667 0 4.266667 0 12.8-4.266667 17.066666zM827.733333 682.666667c-4.266667 21.333333-21.333333 38.4-42.666666 38.4H234.666667c-21.333333-4.266667-42.666667-17.066667-42.666667-38.4l-46.933333-358.4v-234.666667c0-21.333333 21.333333-42.666667 42.666666-42.666667h648.533334c25.6 0 42.666667 21.333333 42.666666 42.666667v234.666667L827.733333 682.666667z m-204.8-128c8.533333 8.533333 17.066667 17.066667 29.866667 21.333333 12.8 4.266667 21.333333 8.533333 34.133333 4.266667 21.333333 0 42.666667-8.533333 55.466667-21.333334 8.533333-8.533333 17.066667-21.333333 21.333333-34.133333l-34.133333-12.8c0 8.533333-8.533333 17.066667-12.8 25.6-8.533333 4.266667-17.066667 8.533333-25.6 8.533333-8.533333 0-12.8 0-21.333333-4.266666-4.266667-4.266667-12.8-8.533333-17.066667-12.8-8.533333-12.8-12.8-29.866667-12.8-46.933334 0-17.066667 4.266667-38.4 12.8-51.2 4.266667-4.266667 8.533333-8.533333 17.066667-12.8 4.266667-4.266667 12.8-4.266667 17.066666-4.266666 8.533333 0 21.333333 4.266667 25.6 8.533333 8.533333 8.533333 12.8 21.333333 17.066667 29.866667l38.4-12.8c-4.266667-17.066667-12.8-34.133333-29.866667-46.933334-12.8-8.533333-34.133333-17.066667-51.2-17.066666-12.8 0-21.333333 0-34.133333 4.266666-12.8 4.266667-21.333333 12.8-29.866667 21.333334-17.066667 21.333333-25.6 46.933333-25.6 72.533333 0 29.866667 8.533333 59.733333 25.6 81.066667z m-179.2 21.333333h38.4v-157.866667h93.866667v-34.133333h-136.533333V576z m-179.2 0h64c17.066667 0 29.866667 0 46.933334-4.266667 8.533333 0 17.066667-8.533333 25.6-17.066666 8.533333-8.533333 12.8-25.6 12.8-38.4 0-8.533333 0-21.333333-8.533334-29.866667-4.266667-8.533333-8.533333-12.8-17.066666-17.066667-4.266667-4.266667-12.8-8.533333-21.333334-8.533333-12.8 0-25.6-4.266667-38.4-4.266667h-25.6V384h-38.4V576z m554.666667-456.533333c0-12.8-8.533333-21.333333-21.333333-21.333334H221.866667c-12.8 0-21.333333 8.533333-21.333334 21.333334v157.866666c0 12.8 8.533333 21.333333 21.333334 21.333334h576c12.8 0 21.333333-8.533333 21.333333-21.333334v-157.866666z"  horiz-adv-x="1024" />
      
      <glyph glyph-name="camera-trigger" unicode="&#58940;" d="M666.79-64H355.72c-52.84 0-95.25 43.16-95.25 95.26a95.4 95.4 0 0 0 6.69 35.74l37.21 92.28a139.61 139.61 0 0 0-108.65 136.16V692.09A139.74 139.74 0 0 0 335.63 832h352.74a139.74 139.74 0 0 0 139.91-139.91l-0.75-396.65a139.6 139.6 0 0 0-108.65-136.18L756.09 67a95.23 95.23 0 0 0-0.74-72.93 97.62 97.62 0 0 0-52.09-51.35 105 105 0 0 0-36.47-6.7zM368.65 149l-35.48-84.49c-2.54-5.51-3.17-11.63-3.17-17.75 0-26.33 22.17-47.76 49.42-47.76h264.83a60.56 60.56 0 0 1 18.37 3.06c12 4.9 22.18 14.08 27.25 25.72s5.7 25.1 0.63 36.73L655 149z m-21.54 66.08h326.95a92.68 92.68 0 0 1 88.8 92.84l0.67 358.57a93 93 0 0 1-92.83 92.84H351.82A93 93 0 0 1 259 666.49v-359.25a92.55 92.55 0 0 1 86.11-92.16zM696.1 555.23c-6.13 11.07-18.41 18.69-33 18.69h-69.79L634.74 666c4.6 10.38 3.83 21.46-3.07 30.46-6.14 9-17.65 14.54-29.92 14.54H450.63c-15.35 0-29.15-9-33.76-21.47L327.12 477c-4.6-10.44-3.07-21.44 3.87-30.44 6.13-8.3 17.64-13.84 29.15-13.84h65.2L387 301.84c-4.61-14.54 2.3-29.77 17.64-36.69a35.61 35.61 0 0 1 16.87-4.15 38.55 38.55 0 0 1 26.85 11.07L690 519.92c10 10.38 12.24 23.54 6.1 35.31zM457.89 367l31.59 118h-84.81l61.7 162h95.22l-47.71-116h88z"  horiz-adv-x="1024" />
      
      <glyph glyph-name="light-trigger" unicode="&#58888;" d="M921.6 486.4H716.8V793.6L375.47008 281.6h204.8v-307.2L921.6 486.4zM502.99904 349.87008l145.53088 218.2656v-150.00576h145.50016L648.52992 199.87456V349.87008H502.99904zM102.4 349.87008h204.8V281.6H102.4zM170.67008 486.4H409.6v-68.27008H170.67008zM307.2 622.92992h170.67008v-68.27008H307.2zM170.67008 213.32992H512v-68.25984H170.67008z"  horiz-adv-x="1024" />
      
      <glyph glyph-name="pattern" unicode="&#59326;" d="M1484.8 896a204.8 204.8 0 0 0 204.8-204.8v-614.4a204.8 204.8 0 0 0-204.8-204.8H665.6a204.8 204.8 0 0 0-204.8 204.8V691.2a204.8 204.8 0 0 0 204.8 204.8h819.2z m0-102.4H665.6a102.4 102.4 0 0 1-102.4-102.4v-614.4a102.4 102.4 0 0 1 102.4-102.4h819.2a102.4 102.4 0 0 1 102.4 102.4V691.2a102.4 102.4 0 0 1-102.4 102.4z m-178.0736-429.6704l1.792-1.792 1.024-1.1264 194.304-215.9104a25.6 25.6 0 0 0-34.7136-37.376l-3.3792 3.1744-194.304 215.8592-0.9216 1.024a25.6 25.6 0 0 1-32.6144 2.9184l-3.584-2.9696-162.56-162.56a76.8 76.8 0 0 0-90.6752-13.312l-6.1952 3.7376-83.7632 55.808a25.6 25.6 0 0 1-28.8768-0.3072l-3.4304-2.8672-175.104-175.104a25.6 25.6 0 0 0-39.168 32.6144l2.9184 3.584 175.104 175.104a76.8 76.8 0 0 0 90.7264 13.312l6.1952-3.7376 83.7632-55.808a25.6 25.6 0 0 1 28.8768 0.3072l3.4304 2.8672 162.56 162.56a76.8 76.8 0 0 0 108.5952 0zM248.5248 555.7248a25.6 25.6 0 0 0 2.9184-32.6656l-2.9184-3.584L87.3984 358.4l161.1264-161.0752a25.6 25.6 0 0 0-32.6656-39.168l-3.584 2.9184L15.0016 358.4l197.2736 197.3248a25.6 25.6 0 0 0 36.2496 0z m1653.3504 0L2099.2 358.4l-197.3248-197.3248a25.6 25.6 0 1 0-36.1984 36.2496l161.1264 161.0752-161.1264 161.0752a25.6 25.6 0 1 0 36.1984 36.2496zM896 640a128 128 0 1 0 0-256 128 128 0 0 0 0 256z m0-51.2a76.8 76.8 0 1 1 0-153.6 76.8 76.8 0 0 1 0 153.6z"  horiz-adv-x="2099" />
      
      <glyph glyph-name="defect" unicode="&#58895;" d="M600.405333-42.666667a61.511111 61.511111 0 0 0-61.496889 61.511111V295.566222a61.511111 61.511111 0 0 0 61.496889 61.482667h276.764445a61.482667 61.482667 0 0 0 61.482666-61.482667v-276.721778A61.496889 61.496889 0 0 0 877.169778-42.666667h-276.764445z m0 307.484445v-215.239111a30.748444 30.748444 0 0 1 30.762667-30.734223h215.253333a30.748444 30.748444 0 0 1 30.748445 30.734223V264.817778a30.762667 30.762667 0 0 1-30.748445 30.748444H631.168a30.762667 30.762667 0 0 1-30.762667-30.762666zM146.830222-42.666667A61.511111 61.511111 0 0 0 85.333333 18.844444V295.566222a61.496889 61.496889 0 0 0 61.496889 61.482667h276.750222a61.496889 61.496889 0 0 0 61.496889-61.482667v-276.721778A61.511111 61.511111 0 0 0 423.580444-42.666667H146.830222z m0 307.484445v-215.239111c0-16.981333 13.767111-30.734222 30.748445-30.734223h215.253333a30.748444 30.748444 0 0 1 30.748444 30.734223V264.817778a30.748444 30.748444 0 0 1-30.748444 30.748444H177.578667a30.762667 30.762667 0 0 1-30.748445-30.762666z m61.496889-215.239111a27.178667 27.178667 0 0 0-30.748444 30.748444v153.742222a27.164444 27.164444 0 0 0 30.748444 30.748445h153.756445a27.178667 27.178667 0 0 0 30.748444-30.748445v-153.742222a27.164444 27.164444 0 0 0-30.748444-30.748444H208.327111zM600.405333 410.88a61.511111 61.511111 0 0 0-61.496889 61.482667V749.084444a61.511111 61.511111 0 0 0 61.496889 61.496889h276.764445a61.482667 61.482667 0 0 0 61.482666-61.496889v-276.721777a61.482667 61.482667 0 0 0-61.482666-61.482667h-276.764445z m0 307.470222v-215.239111c0-16.981333 13.781333-30.748444 30.762667-30.748444h215.253333a30.762667 30.762667 0 0 1 30.748445 30.748444V718.364444a30.748444 30.748444 0 0 1-30.748445 30.734223H631.168a30.748444 30.748444 0 0 1-30.762667-30.748445z m-453.575111-307.484444A61.724444 61.724444 0 0 0 85.333333 472.376889V749.098667a61.511111 61.511111 0 0 0 61.496889 61.496889h153.756445l36.352-55.025778-119.153778-97.792 121.927111-80.497778-18.488889-127.004444 0.398222-2.631112 76.458667 139.008-102.4 79.445334 103.822222 86.257778L366.407111 810.666667h57.102222a61.511111 61.511111 0 0 0 61.496889-61.496889v-276.736a61.752889 61.752889 0 0 0-61.496889-61.539556l-276.679111-0.014222z m515.057778 92.245333a27.178667 27.178667 0 0 0-30.748444 30.748445v153.742222a27.164444 27.164444 0 0 0 30.748444 30.748444H815.644444a27.192889 27.192889 0 0 0 30.762667-30.748444v-153.742222a27.192889 27.192889 0 0 0-30.762667-30.748445H661.888z"  horiz-adv-x="1024" />
      
      <glyph glyph-name="exp-time" unicode="&#58924;" d="M512 588.8a204.8 204.8 0 1 1 204.8-204.8 204.8 204.8 0 0 1-204.8 204.8m0 51.2a256 256 0 1 0-256-256 256 256 0 0 0 256 256zM512 691.2a25.6 25.6 0 0 0-25.6 25.6v51.2A25.6 25.6 0 0 0 512 793.6a25.6 25.6 0 0 0 25.6-25.6v-51.2a25.6 25.6 0 0 0-25.6-25.6zM512-25.6a25.6 25.6 0 0 0-25.6 25.6v51.2a25.6 25.6 0 0 0 25.6 25.6 25.6 25.6 0 0 0 25.6-25.6v-51.2a25.6 25.6 0 0 0-25.6-25.6zM744.192 616.192a25.6 25.6 0 0 0 0 36.1984l36.1984 36.2496a25.6 25.6 0 0 0 36.2496 0 25.6 25.6 0 0 0 0-36.2496l-36.2496-36.1984a25.6 25.6 0 0 0-36.1984 0zM207.36 79.36a25.6 25.6 0 0 0 0 36.1984l36.1984 36.2496a25.6 25.6 0 0 0 36.2496 0 25.6 25.6 0 0 0 0-36.2496l-36.2496-36.1984a25.6 25.6 0 0 0-36.1984 0zM819.2 384a25.6 25.6 0 0 0 25.6 25.6h51.2a25.6 25.6 0 0 0 25.6-25.6 25.6 25.6 0 0 0-25.6-25.6h-51.2a25.6 25.6 0 0 0-25.6 25.6zM102.4 384a25.6 25.6 0 0 0 25.6 25.6h51.2a25.6 25.6 0 0 0 25.6-25.6 25.6 25.6 0 0 0-25.6-25.6h-51.2A25.6 25.6 0 0 0 102.4 384zM744.192 151.808a25.6 25.6 0 0 0 36.1984 0l36.2496-36.1984a25.6 25.6 0 0 0 0-36.2496 25.6 25.6 0 0 0-36.2496 0l-36.1984 36.2496a25.6 25.6 0 0 0 0 36.1984zM207.36 688.64a25.6 25.6 0 0 0 36.1984 0l36.2496-36.1984a25.6 25.6 0 0 0 0-36.2496 25.6 25.6 0 0 0-36.2496 0l-36.1984 36.2496a25.6 25.6 0 0 0 0 36.1984z"  horiz-adv-x="1024" />
      
      <glyph glyph-name="trigger" unicode="&#58887;" d="M765.04 348.206c-0.858 15.413-11.156 30.015-25.744 36.505l-129.578 60.84L880.03 602.925c14.588 8.113 23.17 23.526 22.311 39.75-0.858 16.224-11.156 30.826-26.602 38.126L559.089 829.252c-20.596 9.735-44.624 4.057-58.354-12.979l-308.07-384.512c-8.58-10.546-11.155-24.337-8.58-37.316 3.432-12.98 12.013-23.525 24.885-30.015l120.139-56.784-210.243-305.014c-12.014-17.847-9.44-41.372 6.865-55.974 16.305-14.601 41.19-17.035 60.07-4.867l559.502 366.666c13.73 8.112 21.453 23.525 19.737 39.75z"  horiz-adv-x="1024" />
      
      <glyph glyph-name="help-video" unicode="&#59101;" d="M128.896 309.728q0-3.2-0.64-6.272-0.608-3.104-1.792-6.016-1.216-2.944-2.976-5.568-1.792-2.624-4.032-4.864-2.24-2.24-4.864-4-2.624-1.728-5.568-2.944-2.944-1.216-6.048-1.824-3.104-0.64-6.272-0.64-3.2 0-6.272 0.64-3.136 0.608-6.08 1.824-2.88 1.216-5.536 2.944-2.656 1.76-4.896 4-2.24 2.24-4 4.864-1.76 2.624-2.976 5.568-1.216 2.88-1.824 6.016-0.64 3.104-0.64 6.272 0 3.136 0.64 6.24t1.824 6.016q1.216 2.944 2.976 5.568 1.76 2.624 4 4.864 2.24 2.24 4.896 4 2.624 1.728 5.568 2.944 2.912 1.216 6.048 1.824 3.104 0.64 6.272 0.64t6.272-0.64q3.104-0.608 6.048-1.824 2.944-1.216 5.568-2.944 2.624-1.76 4.864-4 2.24-2.24 4.032-4.864 1.76-2.624 2.976-5.568 1.184-2.88 1.824-6.016 0.64-3.104 0.64-6.24zM960.096 497.664c0.096 1.6 0.192 3.2 0.192 4.8 0 35.008-28.48 63.296-63.584 63.296-11.712 0-22.72-3.2-32.192-8.672L864 557.376l-31.488-18.208V603.872a133.536 133.536 0 0 1-133.12 132.992H197.504a133.376 133.376 0 0 1-132.992-132.992v-165.792h0.192c0-17.696 14.4-32.096 32.192-32.096s32.192 14.4 32.192 32.096h0.224V608.96c0 35.2 28.8 64 64 64h510.176c35.2 0 64-28.8 64-64v-448.896c0-35.2-28.8-64-64-64H193.408c-35.2 0-64 28.8-64 64v21.44c0 17.664-14.4 32.064-32.192 32.064-17.824 0-32.224-14.4-32.224-32.096H64.64v-15.296a133.376 133.376 0 0 1 132.992-132.992h501.888a133.312 133.312 0 0 1 133.024 132.992v64.096l33.088-19.104 0.096 0.096c9.216-5.12 19.808-8 31.008-8a63.52 63.52 0 0 1 63.392 68.096v226.304z m-63.584-205.12a14.88 14.88 0 0 0-15.04-14.08 14.752 14.752 0 0 0-7.456 2.016l-41.504 23.68V465.92l40.896 23.2a14.752 14.752 0 0 0 8.096 2.272c8.32 0 15.008-6.592 15.008-14.592v-184.192zM455.2 306.24v8.096c0 13.984 3.104 26.24 9.248 37.856 5.568 10.496 13.568 20.384 24.672 29.12 29.568 24.416 47.488 40.128 53.024 45.952 14.816 18.656 22.848 42.528 22.848 71.616 0 35.488-12.352 63.424-37.024 83.776-24.704 20.992-57.344 30.88-97.44 30.88-45.632 0-81.408-12.224-107.936-36.672-27.136-24.448-40.096-58.24-40.096-101.28h70.304c0 24.448 4.96 43.68 15.424 57.056 11.712 16.288 30.848 23.872 58.016 23.872 20.96 0 37.6-5.28 49.28-16.32 11.136-11.04 17.312-26.208 17.312-45.408 0-14.56-5.568-28.48-16.64-41.312l-7.424-8.128c-40.096-33.792-64.16-58.24-72.16-73.92-8.64-15.744-12.352-34.976-12.352-57.088v-8.096h70.944z m-34.56-116.448c13.6 0 24.704 4.064 33.952 12.224 9.248 8.128 14.176 19.2 14.176 32.032 0 12.8-4.928 23.296-13.568 31.424a50.752 50.752 0 0 1-34.56 12.224c-13.568 0-24.672-4.064-33.92-12.224-9.248-8.128-13.536-18.624-13.536-31.424s4.288-23.296 13.536-31.424c9.28-8.16 20.352-12.8 33.92-12.8z"  horiz-adv-x="1024" />
      
      <glyph glyph-name="help" unicode="&#59593;" d="M426.666667 85.333333 554.666667 85.333333 554.666667-42.666667 426.666667-42.666667 426.666667 85.333333M512 810.666667C653.226667 810.666667 768 695.893333 768 554.666667 753.92 497.92 739.413333 440.746667 704 398.08 668.586667 355.413333 611.413333 327.253333 583.253333 291.413333 554.666667 256 554.666667 213.333333 554.666667 170.666667L426.666667 170.666667C426.666667 241.92 426.666667 302.08 455.253333 344.746667 483.413333 387.413333 540.586667 412.586667 576 440.746667 611.413333 469.333333 625.92 512 640 554.666667 640 625.493333 582.826667 682.666667 512 682.666667 441.173333 682.666667 384 625.493333 384 554.666667L256 554.666667C256 695.893333 370.773333 810.666667 512 810.666667Z"  horiz-adv-x="1024" />
      
      <glyph glyph-name="folder-open" unicode="&#59396;" d="M86.592 742.4v-716.8h853.376V608H472.64L365.696 742.4h-279.04zM1.28 832h404.288L512.64 697.6H1025.28V-64H1.28V832z m85.312-281.6v-535.616l853.376 1.28V416H472.64L365.696 550.4h-279.04zM33.28 640h372.352L512.64 505.6H993.28a32 32 0 0 0 32-32v-458.496l-1025.216-16.192 1.152 609.152A32 32 0 0 0 33.28 640z"  horiz-adv-x="1024" />
      
      <glyph glyph-name="import1" unicode="&#58997;" d="M667.733333 32H170.666667c-6.4 0-10.666667 4.266667-10.666667 10.666667V725.333333c0 6.4 4.266667 10.666667 10.666667 10.666667h309.333333V576c0-40.533333 34.133333-74.666667 74.666667-74.666667h160v-38.4c0-17.066667 14.933333-32 32-32s32 14.933333 32 32V597.333333c0 8.533333-4.266667 17.066667-8.533334 23.466667l-170.666666 170.666667c-6.4 6.4-14.933333 8.533333-23.466667 8.533333H170.666667C130.133333 800 96 765.866667 96 725.333333v-682.666666c0-40.533333 34.133333-74.666667 74.666667-74.666667h497.066666c17.066667 0 32 14.933333 32 32s-14.933333 32-32 32z m46.933334 550.4v-17.066667H554.666667c-6.4 0-10.666667 4.266667-10.666667 10.666667V736h19.2l151.466667-153.6zM853.333333 298.666667H599.466667l51.2 51.2c12.8 12.8 12.8 32 0 44.8-12.8 12.8-32 12.8-44.8 0l-106.666667-106.666667c-12.8-12.8-12.8-32 0-44.8l106.666667-106.666667c6.4-6.4 14.933333-8.533333 23.466666-8.533333s17.066667 2.133333 23.466667 8.533333c12.8 12.8 12.8 32 0 44.8L599.466667 234.666667H853.333333c17.066667 0 32 14.933333 32 32S870.4 298.666667 853.333333 298.666667z"  horiz-adv-x="1024" />
      
      <glyph glyph-name="refresh" unicode="&#59003;" d="M934.4 689.066667c-17.066667 4.266667-34.133333-6.4-38.4-23.466667l-23.466667-87.466667C797.866667 712.533333 654.933333 800 497.066667 800 264.533333 800 74.666667 614.4 74.666667 384s189.866667-416 422.4-416c179.2 0 339.2 110.933333 398.933333 275.2 6.4 17.066667-2.133333 34.133333-19.2 40.533333-17.066667 6.4-34.133333-2.133333-40.533333-19.2-51.2-138.666667-187.733333-232.533333-339.2-232.533333C298.666667 32 138.666667 189.866667 138.666667 384S300.8 736 497.066667 736c145.066667 0 277.333333-87.466667 330.666666-217.6l-128 36.266667c-17.066667 4.266667-34.133333-6.4-38.4-23.466667-4.266667-17.066667 6.4-34.133333 23.466667-38.4l185.6-49.066667c2.133333 0 6.4-2.133333 8.533333-2.133333 6.4 0 10.666667 2.133333 17.066667 4.266667 6.4 4.266667 12.8 10.666667 14.933333 19.2l49.066667 185.6c0 17.066667-8.533333 34.133333-25.6 38.4z"  horiz-adv-x="1024" />
      
      <glyph glyph-name="doc" unicode="&#59804;" d="M679.838341 843.70963l237.99277-237.992771V-78.648889h-800.995555v922.358519h563.002785zM602.287408 770.916124h-412.634075V-5.831111h655.36v533.997037h-242.725925V770.891852zM735.786667 212.622222v-72.817778H298.88v72.817778h436.906667z m0 194.180741v-72.817777H298.88v72.817777h436.906667z m-231.269263 194.18074v-72.817777H298.88v72.817777h205.637404z m315.082525 0L675.105186 745.478448V600.983703h144.494743z"  horiz-adv-x="1024" />
      
      <glyph glyph-name="upload-img" unicode="&#58926;" d="M576-32H192c-52.992 0-96 43.093333-96 96V704c0 52.992 43.093333 96 96 96h640c52.992 0 96-43.093333 96-96v-384.064c0-17.706667-14.293333-32-32-32s-32 14.293333-32 32V703.978667c0 17.706667-14.4 32-32 32H192c-17.706667 0-32-14.378667-32-32v-639.957334c0-17.706667 14.4-32 32-32h384c17.706667 0 32-14.314667 32-32 0-17.706667-14.293333-32.021333-32-32.021333zM128 202.688a32.064 32.064 0 0 0-22.613333 54.698667l159.402666 159.338666a95.786667 95.786667 0 0 0 110.72 17.984l173.589334-86.805333c12.309333-6.186667 27.093333-3.797333 36.8 5.994667l287.402666 287.445333a32.042667 32.042667 0 0 0 45.290667-45.312L631.210667 308.608a95.786667 95.786667 0 0 0-110.72-18.005333l-173.589334 86.826666a31.616 31.616 0 0 1-36.8-6.016l-159.509333-159.317333c-6.186667-6.314667-14.4-9.386667-22.592-9.386667z m320 277.376c-52.906667 0-96 43.093333-96 96s43.093333 96.021333 96 96.021333 96-43.093333 96-96-43.093333-96.021333-96-96.021333z m0 128c-17.6 0-32-14.378667-32-32 0-17.6 14.4-32 32-32s32 14.4 32 32c0 17.621333-14.4 32-32 32zM768-32c-17.706667 0-32 14.293333-32 32v192.021333c0 17.706667 14.293333 32 32 32s32-14.293333 32-32v-192c0-17.706667-14.293333-32.021333-32-32.021333z m128 128c-7.893333 0-15.701333 2.922667-21.909333 8.725333L768 204.330667l-106.090667-99.712a31.936 31.936 0 0 0-45.226666 1.408 31.957333 31.957333 0 0 0 1.408 45.205333l112.213333 105.386667A48.554667 48.554667 0 0 0 768 274.56c14.72 0 28.501333-6.613333 37.696-17.92l112.213333-105.386667A31.957333 31.957333 0 0 0 896 96z"  horiz-adv-x="1024" />
      
      <glyph glyph-name="xiala" unicode="&#58927;" d="M179.2 529.066667l298.666667-398.208a42.666667 42.666667 0 0 1 68.266666 0l298.666667 398.208A42.666667 42.666667 0 0 1 810.666667 597.333333H213.333333a42.666667 42.666667 0 0 1-34.133333-68.266666z"  horiz-adv-x="1024" />
      
      <glyph glyph-name="close1" unicode="&#59449;" d="M801.645714 725.333333l51.833905-51.590095L565.150476 384.048762l288.353524-289.670095-51.833905-51.614477-288.109714 289.450667L225.426286 42.76419 173.592381 94.378667l288.329143 289.670095L173.592381 673.743238 225.426286 725.333333l288.109714-289.426285L801.645714 725.333333z"  horiz-adv-x="1024" />
      
      <glyph glyph-name="back" unicode="&#58982;" d="M853.333333 650.666667H245.333333l93.866667 93.866666c12.8 12.8 12.8 34.133333 0 46.933334-12.8 12.8-34.133333 12.8-46.933333 0l-145.066667-145.066667c-12.8-12.8-12.8-34.133333 0-46.933333l145.066667-145.066667c6.4-6.4 14.933333-10.666667 23.466666-10.666667s17.066667 4.266667 23.466667 10.666667c12.8 12.8 12.8 34.133333 0 46.933333L256 584.533333h597.333333c6.4 0 10.666667-4.266667 10.666667-10.666666v-426.666667c0-6.4-4.266667-10.666667-10.666667-10.666667H170.666667c-17.066667 0-32-14.933333-32-32s14.933333-32 32-32h682.666666c40.533333 0 74.666667 34.133333 74.666667 74.666667V576c0 40.533333-34.133333 74.666667-74.666667 74.666667z"  horiz-adv-x="1024" />
      
      <glyph glyph-name="close" unicode="&#58984;" d="M556.8 384L832 659.2c12.8 12.8 12.8 32 0 44.8-12.8 12.8-32 12.8-44.8 0L512 428.8l-275.2 277.333333c-12.8 12.8-32 12.8-44.8 0-12.8-12.8-12.8-32 0-44.8l275.2-277.333333-277.333333-275.2c-12.8-12.8-12.8-32 0-44.8 6.4-6.4 14.933333-8.533333 23.466666-8.533333s17.066667 2.133333 23.466667 8.533333L512 339.2 787.2 64c6.4-6.4 14.933333-8.533333 23.466667-8.533333s17.066667 2.133333 23.466666 8.533333c12.8 12.8 12.8 32 0 44.8L556.8 384z"  horiz-adv-x="1024" />
      
      <glyph glyph-name="export" unicode="&#58990;" d="M582.4 32H170.666667c-6.4 0-10.666667 4.266667-10.666667 10.666667V725.333333c0 6.4 4.266667 10.666667 10.666667 10.666667h309.333333V576c0-40.533333 34.133333-74.666667 74.666667-74.666667h160v-38.4c0-17.066667 14.933333-32 32-32s32 14.933333 32 32V597.333333c0 8.533333-4.266667 17.066667-8.533334 23.466667l-170.666666 170.666667c-6.4 6.4-14.933333 8.533333-23.466667 8.533333H170.666667C130.133333 800 96 765.866667 96 725.333333v-682.666666c0-40.533333 34.133333-74.666667 74.666667-74.666667h411.733333c17.066667 0 32 14.933333 32 32s-14.933333 32-32 32z m132.266667 550.4v-17.066667H554.666667c-6.4 0-10.666667 4.266667-10.666667 10.666667V736h19.2l151.466667-153.6zM866.133333 226.133333l-106.666666 106.666667c-12.8 12.8-32 12.8-44.8 0s-12.8-32 0-44.8l51.2-51.2H512c-17.066667 0-32-14.933333-32-32S494.933333 170.666667 512 170.666667h253.866667l-51.2-51.2c-12.8-12.8-12.8-32 0-44.8 6.4-6.4 14.933333-8.533333 23.466666-8.533334s17.066667 2.133333 23.466667 8.533334l106.666667 106.666666c8.533333 10.666667 8.533333 32-2.133334 44.8z"  horiz-adv-x="1024" />
      
      <glyph glyph-name="camera" unicode="&#58885;" d="M657.8 324.3q0-25.2-9.45-47.25t-25.65-38.25-37.8-25.65-46.8-9.45-46.8 9.45-37.8 25.65-25.65 38.25-9.45 47.25q0 24.3 9.45 46.35t25.65 38.25 37.8 25.65 46.8 9.45 46.8-9.45 37.8-25.65 25.65-38.25 9.45-46.35zM212.3 84.9q-25.2 0-45 4.5t-33.3 15.3-20.7 29.25-7.2 46.35l0 304.2q0 50.4 23.85 70.2t75.15 19.8l151.2 0q14.4 0 23.85 5.4t15.3 14.4 10.35 21.15 9.9 24.75q9 23.4 31.5 40.5t51.3 17.1l83.7 0q33.3 0 54.45-18.45t28.35-39.15q9.9-27 26.1-46.35t34.2-19.35l114.3 0q39.6 0.9 63-21.6t23.4-65.7l0-308.7q0-45.9-24.3-69.75t-64.8-23.85l-624.6 0zM536.3 512.4q-39.6 0-73.8-14.85t-59.4-40.5-40.05-59.85-14.85-72.9q0-39.6 14.85-73.8t40.05-59.4 59.4-40.05 73.8-14.85q38.7 0 72.9 14.85t59.4 40.05 40.05 59.4 14.85 73.8q0 38.7-14.85 72.9t-40.05 59.85-59.4 40.5-72.9 14.85zM599.3 609.6q0 14.4-1.35 22.5t-18.45 8.1l-74.7 0q-17.1 0.9-18.45-7.2t-1.35-23.4q-0.9-17.1 1.8-24.3t18-7.2l74.7 0q17.1 0 18.45 8.1t1.35 23.4z"  horiz-adv-x="1024" />
      
      <glyph glyph-name="zhijianyuan" unicode="&#59178;" d="M576-78.336c-17.92-0.465455-35.84-1.024-53.76-1.024-126.976 0-260.096 16.384-399.872 48.64v121.856c0 121.344 174.545455 219.694545 390.144 219.694545h12.288a269.917091 269.917091 0 0 1-61.44-170.542545c0-90.112 44.544-169.984 112.64-218.624zM731.694545 603.601455q0-5.399273-0.279272-10.752-0.232727-5.399273-0.791273-10.752-0.465455-5.399273-1.303273-10.705455-0.791273-5.352727-1.861818-10.658909-1.024-5.259636-2.327273-10.519273-1.303273-5.213091-2.885818-10.379636-1.582545-5.12-3.397818-10.24-1.815273-5.073455-3.863273-10.053818-2.048-4.980364-4.375272-9.867637t-4.840728-9.634909q-2.56-4.747636-5.306182-9.355636-2.792727-4.654545-5.771636-9.122909-3.025455-4.468364-6.237091-8.843637-3.211636-4.282182-6.609454-8.471272-3.444364-4.189091-7.074909-8.145455-3.584-4.002909-7.447273-7.819636-3.770182-3.816727-7.773091-7.447273-4.002909-3.630545-8.145455-7.028364-4.189091-3.444364-8.517818-6.656-4.328727-3.211636-8.843636-6.190545-4.468364-3.025455-9.076364-5.771636-4.654545-2.792727-9.402182-5.306182-4.747636-2.56-9.634909-4.840728-4.840727-2.327273-9.867636-4.375272-4.980364-2.094545-10.053818-3.909818-5.073455-1.815273-10.24-3.351273-5.12-1.582545-10.379637-2.885818-5.213091-1.303273-10.519272-2.373819-5.306182-1.070545-10.612364-1.861818-5.352727-0.791273-10.705455-1.303272t-10.752-0.791273q-5.399273-0.279273-10.798545-0.279273t-10.752 0.279273q-5.399273 0.279273-10.752 0.791273-5.399273 0.512-10.705455 1.303272-5.352727 0.791273-10.658909 1.861818-5.259636 1.070545-10.519272 2.327273-5.213091 1.349818-10.379637 2.932364-5.12 1.536-10.24 3.351273-5.073455 1.861818-10.053818 3.909818-4.980364 2.048-9.867636 4.375272-4.887273 2.280727-9.634909 4.840728-4.747636 2.513455-9.355637 5.306182-4.654545 2.792727-9.122909 5.771636t-8.843636 6.190545q-4.282182 3.258182-8.471273 6.656-4.189091 3.397818-8.145454 7.028364-4.002909 3.630545-7.819637 7.447273-3.816727 3.816727-7.447273 7.819636-3.630545 3.956364-7.028363 8.145455-3.444364 4.189091-6.656 8.517818Q332.334545 477.090909 329.355636 481.559273q-3.025455 4.468364-5.771636 9.122909-2.792727 4.654545-5.306182 9.355636-2.56 4.747636-4.840727 9.634909-2.327273 4.887273-4.375273 9.867637-2.094545 4.980364-3.909818 10.053818-1.815273 5.12-3.351273 10.24-1.582545 5.166545-2.885818 10.379636-1.303273 5.259636-2.373818 10.519273-1.070545 5.306182-1.861818 10.658909-0.791273 5.306182-1.303273 10.705455-0.512 5.352727-0.791273 10.705454-0.279273 5.399273-0.279272 10.798546t0.279272 10.798545q0.279273 5.352727 0.791273 10.705455 0.512 5.399273 1.303273 10.705454 0.791273 5.352727 1.861818 10.658909t2.327273 10.519273q1.349818 5.213091 2.932363 10.379636 1.536 5.166545 3.351273 10.24 1.861818 5.12 3.909818 10.053818 2.048 4.980364 4.375273 9.867637t4.840727 9.634909q2.513455 4.747636 5.306182 9.402182 2.792727 4.608 5.771636 9.076363 2.978909 4.514909 6.190546 8.843637 3.258182 4.328727 6.656 8.471272 3.397818 4.189091 7.028363 8.192t7.447273 7.819637q3.816727 3.816727 7.819637 7.447273 3.956364 3.584 8.145454 6.981818 4.189091 3.444364 8.517818 6.656 4.328727 3.258182 8.797091 6.237091t9.122909 5.725091q4.654545 2.792727 9.355637 5.352727 4.747636 2.513455 9.634909 4.840727 4.887273 2.327273 9.867636 4.375273t10.053818 3.863273q5.12 1.861818 10.24 3.397818 5.166545 1.536 10.379637 2.885818 5.259636 1.303273 10.519272 2.327273 5.306182 1.070545 10.658909 1.861818 5.306182 0.791273 10.705455 1.303273 5.352727 0.558545 10.705455 0.791272 5.399273 0.279273 10.798545 0.279273t10.798545-0.279273q5.399273-0.232727 10.705455-0.791272 5.399273-0.512 10.705455-1.303273 5.352727-0.791273 10.705454-1.861818 5.259636-1.024 10.472727-2.327273 5.213091-1.349818 10.379637-2.885818 5.166545-1.582545 10.24-3.397818 5.12-1.815273 10.053818-3.863273 5.026909-2.094545 9.867636-4.375273 4.887273-2.327273 9.634909-4.840727 4.747636-2.56 9.402182-5.352727 4.654545-2.792727 9.076364-5.725091 4.514909-3.025455 8.843636-6.237091t8.517818-6.609455q4.189091-3.444364 8.145455-7.074909 4.002909-3.584 7.819636-7.447273 3.816727-3.770182 7.447273-7.773091 3.584-4.002909 6.981818-8.192 3.444364-4.189091 6.656-8.471272 3.258182-4.328727 6.237091-8.843637 2.978909-4.468364 5.771636-9.076363 2.792727-4.654545 5.306182-9.402182 2.513455-4.747636 4.840728-9.634909 2.327273-4.887273 4.375272-9.867637t3.863273-10.053818q1.861818-5.073455 3.397818-10.24 1.582545-5.12 2.885818-10.379636 1.303273-5.213091 2.327273-10.519273 1.070545-5.306182 1.861818-10.612363 0.791273-5.352727 1.303273-10.705455 0.558545-5.399273 0.791273-10.752 0.279273-5.399273 0.279272-10.798545zM738.862545 172.544h56.832c-13.824 13.312-24.064 26.065455-30.72 38.4a189.207273 189.207273 0 0 0-26.112-38.4zM731.648 359.424c-0.512 0-0.512 0 0 0A219.601455 219.601455 0 0 1 512 139.776a218.856727 218.856727 0 0 1 219.648-219.136 219.601455 219.601455 0 0 1 219.648 219.694545 219.834182 219.834182 0 0 1-219.648 219.089455z m-50.176-223.232v-102.865455h-25.6v87.505455c-4.608-10.705455-10.24-21.504-16.384-31.744l-20.992 18.432c10.752 15.872 25.088 44.544 34.816 70.656h-21.504v28.672h24.064v38.4l25.6-1.024v-36.864h19.968v-28.672h-19.968v-21.504l8.192 7.168c7.168-9.728 14.336-16.896 20.992-26.065455l-18.432-18.478545a222.347636 222.347636 0 0 1-10.752 16.384z m48.128 1.536c5.632-16.384 13.824-41.425455 17.92-57.856l-23.552-10.24a484.584727 484.584727 0 0 1-16.896 59.904l22.528 8.192z m101.376-100.352h-131.072v27.648h72.192l8.192 22.016-20.48-8.704c-3.584 15.36-11.776 44.032-15.872 58.368l23.04 7.168c3.584-11.264 11.776-34.816 15.36-51.2 6.656 17.408 12.288 35.374545 15.872 49.664l24.576-8.192a1478.283636 1478.283636 0 0 0-24.576-69.12h32.256v-27.648h0.512z m-3.072 107.52c-7.168 5.632-13.312 10.752-19.968 15.872v-15.36h-83.456v12.8a131.723636 131.723636 0 0 0-12.288-10.705455l-16.384 21.969455c29.696 22.016 45.568 49.152 58.368 77.824h20.992c14.336-30.72 38.912-56.32 69.12-79.36l-16.384-23.04z"  horiz-adv-x="1024" />
      
      <glyph glyph-name="show" unicode="&#59080;" d="M512.14000001 82.33333331999995c-136.83 0-253.2 59.32-326.73000001 109.08000001C97.84000001 250.73333333000005 35.29 320.08333332999996 12.14999999 362.51333332a56.53 56.53 0 0 0 2e-8 54.35c23.14000003 42.44 85.68999999 111.79 173.25999999 171.00000001 73.52999999 49.77 189.90000004 109.09 326.73000001 109.09000001 137.52999999 0 253.10000002-57.92000002 325.84-106.51000001 40.4-27 78.56-58.48999999 110.34999999-91.12000003 28.79-29.53 51.46000001-59.18000001 63.84-83.47999997a57.94000001 57.94000001 0 0 0 0-52.39999998c-12.38000001-24.30000001-35-53.95-63.84-83.48000001-31.78999998-32.63-70-64.13999998-110.34999999-91.12999999C765.24 140.33333332999996 649.67000001 82.33333331999995 512.14000001 82.33333331999995zM67 389.69333333c10-17.43 28.73000002-40.66000001 51.88999999-64.2a672.78000002 672.78000002 0 0 1 100.80000001-83.41c66.44999999-45 171.14000001-98.58999999 292.47999999-98.59 122.21 0 226.18000001 52.31999999 291.89 96.21 78.53 52.46000001 133.92 114.07000001 152.88 150-18.99999998 35.92-74.34999997 97.53-152.88 149.99999998-65.71 43.89-169.68 96.21-291.89 96.21000003-121.34000001 0-226-53.60999998-292.47999999-98.59000001a672.23 672.23 0 0 1-100.80000001-83.42000001C95.69999998 430.33333333 76.93 407.12333333 67 389.69333333zM511.80999999 218.47333332000005c-94.40999998 0-171.22000001 76.81-171.21999999 171.22000001s76.81 171.22000001 171.22000001 171.21999999S683 484.10333333 683 389.69333333s-76.77999999-171.22000001-171.18999999-171.22000001z m0 278.44000003A107.22000001 107.22000001 0 1 1 619 389.69333333a107.34000003 107.34000003 0 0 1-107.18999999 107.22000002z"  horiz-adv-x="1024" />
      
      <glyph glyph-name="zuixiaohua" unicode="&#59113;" d="M449.92 352.64C449.92 375.04 431.36 384 410.24 384L97.92 384c-17.92 0-32-14.08-32-32 0-17.92 14.08-32 32-32l242.56 0-267.52-267.52c-12.16-12.16-12.16-31.36 0-43.52 12.16-12.16 31.36-12.16 43.52 0l269.44 269.44 0-246.4c0-17.92 14.08-32 32-32 17.92 0 32 14.08 32 32l0 320M865.92 512 622.72 512l267.52 267.52c12.16 12.16 12.16 31.36 0 43.52-12.16 12.16-31.36 12.16-43.52 0L577.92 553.6 577.92 800C577.92 817.92 563.2 832 545.92 832c-17.92 0-32-14.08-32-32l0-320c0-0.64 0.64-1.28 0.64-1.92 0-8.32 2.56-16.64 8.96-22.4C531.2 447.36 542.72 444.8 552.96 448l312.32 0c17.92 0 32 14.08 32 32C897.92 497.92 883.2 512 865.92 512z"  horiz-adv-x="1024" />
      
      <glyph glyph-name="exit" unicode="&#58962;" d="M918.4 406.4l-160 160c-12.8 12.8-32 12.8-44.8 0s-12.8-32 0-44.8L819.2 416H512c-19.2 0-32-12.8-32-32s12.8-32 32-32h307.2L713.6 246.4c-12.8-12.8-12.8-32 0-44.8 6.4-6.4 12.8-9.6 22.4-9.6s16 3.2 22.4 9.6l160 163.2s0 3.2 3.2 3.2c9.6 9.6 9.6 28.8-3.2 38.4zM832 160c-19.2 0-32-12.8-32-32v-64c0-19.2-12.8-32-32-32H224c-19.2 0-32 12.8-32 32V704c0 19.2 12.8 32 32 32h544c19.2 0 32-12.8 32-32v-64c0-19.2 12.8-32 32-32s32 12.8 32 32v64c0 54.4-41.6 96-96 96H224c-54.4 0-96-41.6-96-96v-640c0-54.4 41.6-96 96-96h544c54.4 0 96 41.6 96 96v64c0 19.2-12.8 32-32 32z"  horiz-adv-x="1024" />
      
      <glyph glyph-name="table" unicode="&#59058;" d="M928 832h-832C78.933333 832 64 817.066667 64 800v-832c0-17.066667 14.933333-32 32-32h832c17.066667 0 32 14.933333 32 32v832c0 17.066667-14.933333 32-32 32zM896 768v-192H384V768h512zM128 768h192v-192H128V768z m0-768V512h192v-512H128z m768 0H384V512h512v-512z"  horiz-adv-x="1024" />
      
      <glyph glyph-name="grid" unicode="&#59452;" d="M896 810.666667H128a42.666667 42.666667 0 0 1-42.666667-42.666667v-768a42.666667 42.666667 0 0 1 42.666667-42.666667h768a42.666667 42.666667 0 0 1 42.666667 42.666667V768a42.666667 42.666667 0 0 1-42.666667 42.666667zM341.333333 42.666667H170.666667v170.666666h170.666666z m0 256H170.666667v170.666666h170.666666z m0 256H170.666667V725.333333h170.666666z m256-512h-170.666666v170.666666h170.666666z m0 256h-170.666666v170.666666h170.666666z m0 256h-170.666666V725.333333h170.666666z m256-512h-170.666666v170.666666h170.666666z m0 256h-170.666666v170.666666h170.666666z m0 256h-170.666666V725.333333h170.666666z"  horiz-adv-x="1024" />
      
      <glyph glyph-name="stop" unicode="&#58925;" d="M368.129447 815.611658H224.258894v-863.223316h143.870553V815.611658zM799.741106 815.611658H655.870553v-863.223316h143.870553V815.611658z"  horiz-adv-x="1024" />
      
      <glyph glyph-name="fullscreen" unicode="&#59200;" d="M128 128v-128h128v-64H76.8a12.8 12.8 0 0 0-12.8 12.8V128h64z m832 0v-179.2a12.8 12.8 0 0 0-12.8-12.8H768v64h128v128h64z m-140.8 576c7.04 0 12.8-5.76 12.8-12.8v-614.4a12.8 12.8 0 0 0-12.8-12.8H204.8a12.8 12.8 0 0 0-12.8 12.8V691.2c0 7.04 5.76 12.8 12.8 12.8h614.4zM768 640H256v-512h512V640z m179.2 192c7.04 0 12.8-5.76 12.8-12.8V640h-64V768h-128V832h179.2zM256 832v-64H128v-128H64V819.2c0 7.04 5.76 12.8 12.8 12.8H256z"  horiz-adv-x="1024" />
      
      <glyph glyph-name="lock" unicode="&#58880;" d="M385.150849 510.337662l-128.895105 0 0 150.377622q0 49.102897 19.436563 91.556444t53.706294 74.677323 80.815185 50.637363 101.786214 18.413586q49.102897 0 94.625375-18.413586t80.815185-50.637363 56.263736-74.677323 20.971029-91.556444l0-150.377622-123.78022 0 0 121.734266q0 64.447552-35.804196 99.74026t-97.182817 35.292707q-55.240759 0-88.999001-35.292707t-33.758242-99.74026l0-121.734266zM826.053946 448.959041q27.62038 0 47.568432-19.948052t19.948052-47.568432l0-317.122877q0-27.62038-9.718282-51.66034t-26.597403-41.942058-39.896104-28.131868-50.637363-10.22977l-516.603397 0q-27.62038 0-50.125874 10.22977t-38.361638 27.108891-24.551449 39.384615-8.695305 48.07992l0 324.283716q0 27.62038 19.436563 47.568432t47.056943 19.948052l61.378621 0 128.895105 0 255.744256 0 123.78022 0 61.378621 0z"  horiz-adv-x="1024" />
      
      <glyph glyph-name="jia" unicode="&#58881;" d="M514.048 833.536q93.184 0 175.616-35.328t143.872-96.768 96.768-143.872 35.328-175.616q0-94.208-35.328-176.128t-96.768-143.36-143.872-96.768-175.616-35.328q-94.208 0-176.64 35.328t-143.872 96.768-96.768 143.36-35.328 176.128q0 93.184 35.328 175.616t96.768 143.872 143.872 96.768 176.64 35.328zM772.096 319.488q26.624 0 45.056 18.944t18.432 45.568-18.432 45.056-45.056 18.432l-192.512 0 0 192.512q0 26.624-18.944 45.568t-45.568 18.944-45.056-18.944-18.432-45.568l0-192.512-192.512 0q-26.624 0-45.056-18.432t-18.432-45.056 18.432-45.568 45.056-18.944l192.512 0 0-191.488q0-26.624 18.432-45.568t45.056-18.944 45.568 18.944 18.944 45.568l0 191.488 192.512 0z"  horiz-adv-x="1024" />
      
      <glyph glyph-name="unlock" unicode="&#58882;" d="M768.25422 896q48.810328 0 94.061569-18.303873t80.333664-50.33565 56.436941-74.740814 21.354518-91.519364l0-150.49851-123.042701 0 0 122.025819q0 64.063555-36.099305 99.654419t-97.112214 35.590864q-54.911619 0-88.468719-35.590864t-33.5571-99.654419l0-124.059583-128.12711 0 0 152.532274q0 48.810328 19.320755 91.519364t53.386296 74.740814 80.333664 50.33565 101.179742 18.303873zM766.220457 202.486594l0-87.451837 0-47.793446q0-27.455809-9.660377-51.860973t-26.438928-41.692155-39.658391-27.455809-50.33565-10.168818l-514.542205 0q-27.455809 0-49.82721 9.660377t-38.641509 26.438928-24.913605 39.14995-8.643496 47.793446l0 323.368421q0 28.472691 19.829196 47.793446t46.268123 19.320755l629.449851 0q28.472691 0 47.793446-19.320755t19.320755-47.793446l0-179.988083z"  horiz-adv-x="1024" />
      
      <glyph glyph-name="shuaxin" unicode="&#58923;" d="M896 697.6 896 697.6l0-179.2 0 0c0-19.2-6.4-32-19.2-44.8-12.8-12.8-32-19.2-44.8-19.2l0 0-179.2 0 0 0c-19.2 0-32 6.4-44.8 19.2-25.6 25.6-25.6 64 0 89.6C620.8 576 633.6 582.4 652.8 582.4l0 0 25.6 0C627.2 620.8 576 640 518.4 640 441.6 640 377.6 614.4 332.8 563.2l0 0c-25.6-25.6-64-25.6-89.6 0-25.6 25.6-25.6 64 0 89.6l0 0C313.6 723.2 409.6 768 518.4 768c96 0 185.6-38.4 249.6-96L768 697.6l0 0c0 19.2 6.4 32 19.2 44.8 25.6 25.6 64 25.6 89.6 0C889.6 736 896 716.8 896 697.6zM416 204.8c-12.8-12.8-32-19.2-44.8-19.2l0 0L352 185.6C396.8 147.2 448 128 505.6 128c70.4 0 134.4 25.6 179.2 76.8l0 0c25.6 25.6 64 25.6 89.6 0 25.6-25.6 25.6-64 0-89.6l0 0C710.4 44.8 614.4 0 505.6 0c-96 0-185.6 38.4-249.6 96l0-32 0 0c0-19.2-6.4-32-19.2-44.8-25.6-25.6-64-25.6-89.6 0C134.4 32 128 51.2 128 70.4l0 0 0 179.2 0 0c0 19.2 6.4 32 19.2 44.8C160 307.2 172.8 313.6 192 313.6l0 0 179.2 0 0 0c19.2 0 32-6.4 44.8-19.2C441.6 268.8 441.6 230.4 416 204.8z"  horiz-adv-x="1024" />
      
      <glyph glyph-name="huiche" unicode="&#59112;" d="M1111.91975 559.2000002899999V780.45a53.47500029 53.47500029 0 0 1-27 46.35 54.52499971 54.52499971 0 0 1-54.15000029 0 53.47500029 53.47500029 0 0 1-27-46.35v-221.24999971c0.225-79.04999971-31.5-143.02500029-88.2-198.75000058-56.32499971-56.09999971-132.975-75.6-212.85-75.375H243.79475029L395.81974971 435.45000029a53.25000029 53.25000029 0 0 1 11.62500029 58.275 54.15000029 54.15000029 0 0 1-88.12500029 17.47499942L77.81975 272.24999971a53.325 53.325 0 0 1 0-75.74999942l248.4-246.15a54.45 54.45 0 0 1 90.52499971 23.99999942 53.25000029 53.25000029 0 0 1-14.02499971 51.75L249.56974971 178.05000028999996h453.22500058c109.27500029 0 212.02499971 30.07500029 289.35 106.65 77.02499971 75.75000029 120.22499971 167.02499971 119.84999942 274.57499971"  horiz-adv-x="1194" />
      
      <glyph glyph-name="paixu1" unicode="&#58892;" d="M600.436364 835.490909v-907.636364c0-27.927273 18.618182-46.545455 46.545454-46.545454s46.545455 18.618182 46.545455 46.545454V737.745455l116.363636-93.09091c18.618182-18.618182 51.2-13.963636 65.163636 4.654546 18.618182 18.618182 13.963636 51.2-4.654545 65.163636L679.563636 872.727273c-32.581818 27.927273-79.127273 4.654545-79.127272-37.236364zM377.018182 886.690909c-27.927273 0-46.545455-18.618182-46.545455-46.545454v-809.89091l-116.363636 93.09091c-18.618182 18.618182-51.2 13.963636-65.163636-4.654546-18.618182-18.618182-13.963636-51.2 4.654545-65.163636l190.836364-158.254546c32.581818-23.272727 74.472727-4.654545 74.472727 37.236364V840.145455c4.654545 23.272727-18.618182 46.545455-41.890909 46.545454z"  horiz-adv-x="1024" />
      
      <glyph glyph-name="right" unicode="&#58883;" d="M792.651852 444.681481l-428.562963 428.562963c-30.340741 30.340741-79.644444 30.340741-106.192593 0-30.340741-30.340741-30.340741-79.644444 0-106.192592l375.466667-375.466667-375.466667-375.466666c-30.340741-30.340741-30.340741-75.851852 0-106.192593s79.644444-30.340741 106.192593 0L792.651852 338.488889c15.17037 15.17037 22.755556 34.133333 22.755555 53.096296 0 18.962963-7.585185 37.925926-22.755555 53.096296"  horiz-adv-x="1024" />
      
      <glyph glyph-name="left" unicode="&#58884;" d="M409.272947 383.42259l403.237243-403.237243a63.349415 63.349415 0 1 0-89.622481-89.622482L274.839224 338.675274a63.349415 63.349415 0 0 0 0 89.494632L722.951633 876.282315a63.349415 63.349415 0 1 0 89.494633-89.622482L409.336872 383.42259z"  horiz-adv-x="1024" />
      
      <glyph glyph-name="gouyonghu" unicode="&#59040;" d="M511.971556-128C229.205333-128 0 101.233778 0 384.028444 0 666.794667 229.205333 896 511.971556 896 794.766222 896 1024 666.794667 1024 384.028444 1024 101.233778 794.766222-128 511.971556-128ZM703.402667 608.028444 422.684444 282.595556 320 384.028444 255.971556 320 422.826667 160.028444 768 544 703.402667 608.028444Z"  horiz-adv-x="1024" />
      
      <glyph glyph-name="zhongdianduiqi" unicode="&#58922;" d="M455.111111 782.222222v-369.777778l113.777778 0.056889V725.333333h227.555555v-312.832l113.777778-0.056889v-56.888888l-113.777778 0.056888V42.666667h-227.555555l-0.056889 312.945777L455.111111 355.555556V-14.222222H227.555556V355.555556H113.777778v56.888888h113.777778V782.222222h227.555555zM398.222222 355.555556H284.444444V42.666667h113.777778V355.555556z m341.333334 0.056888h-113.777778V99.555556h113.777778V355.612444zM284.444444 725.333333v-312.888889h113.777778V725.333333H284.444444z m455.111112-56.888889h-113.777778v-255.943111h113.777778V668.444444z"  horiz-adv-x="1024" />
      
      <glyph glyph-name="juzhongduiqi" unicode="&#59072;" d="M847.8 332.8H543.9v107h157.5c8.8 0 15.9 7.1 15.9 15.9V618.9c0 8.8-7.1 15.9-15.9 15.9H543.9V739.4h-64.1v-104.6H314c-8.8 0-15.9-7.1-15.9-15.9v-163.2c0-8.8 7.1-15.9 15.9-15.9h165.9v-107H175.1c-8.8 0-15.9-7.1-15.9-15.9v-163.2c0-8.8 7.1-15.9 15.9-15.9h304.8v-106.3H544V137.9h303.8c8.8 0 15.9 7.1 15.9 15.9V317c-0.1 8.7-7.2 15.8-15.9 15.8zM362.2 570.7h291v-66.8h-291v66.8zM799.5 202H223.3v66.8h576.3V202z"  horiz-adv-x="1024" />
      
      <glyph glyph-name="alarm" unicode="&#59505;" d="M845.3-82.70000000000005c-8.7 8.7-19.9 14.9-32.4 17.4-7.5 1.5-12.9 7.9-12.9 15.5V317.79999999999995c0 159-130.1 290.8-289.1 290.2-158.5-0.6-286.9-129.3-286.9-288v-369.8c0-7.6-5.4-14-12.9-15.5-29.2-6-51.1-31.8-51.1-62.7h704c0 17.7-7.2 33.7-18.7 45.3zM720-64H304c-8.8 0-16 7.2-16 16V318.20000000000005c0 59.3 22.7 116.7 64.4 159 42.2 42.8 98.5 66.6 158.5 66.8 59.2 0.3 115.8-22.7 158-64.1C712.2 437.4 736 380.5 736 320v-368c0-8.8-7.2-16-16-16zM512 688c-17.7 0-32 14.3-32 32V864c0 17.7 14.3 32 32 32s32-14.3 32-32v-144c0-17.7-14.3-32-32-32zM280 599.9c-15.3-8.8-34.9-3.6-43.7 11.7l-72 124.7c-8.8 15.3-3.6 34.9 11.7 43.7 15.3 8.8 34.9 3.6 43.7-11.7l72-124.7c8.8-15.3 3.6-34.8-11.7-43.7zM744 599.9c15.3-8.8 34.9-3.6 43.7 11.7l72 124.7c8.8 15.3 3.6 34.9-11.7 43.7-15.3 8.8-34.9 3.6-43.7-11.7l-72-124.7c-8.8-15.3-3.6-34.8 11.7-43.7zM202.5 451.1c-4.6-17.1-22.1-27.2-39.2-22.6L24.2 465.7C7.1 470.3-3 487.8 1.5 504.9c4.6 17.1 22.1 27.2 39.2 22.6l139.1-37.3c17.1-4.5 27.2-22 22.7-39.1zM821.5 451.1c4.6-17.1 22.1-27.2 39.2-22.6l139.1 37.3c17.1 4.6 27.2 22.1 22.6 39.2-4.6 17.1-22.1 27.2-39.2 22.6l-139.1-37.3c-17-4.6-27.1-22.1-22.6-39.2zM456.7 16l19.4 173.3H400L567.3 432l-19.4-173.3H624L456.7 16z"  horiz-adv-x="1024" />
      
      <glyph glyph-name="wait" unicode="&#58898;" d="M949.76 896c20.553143 0 37.302857-15.945143 37.302857-35.547429 0-19.309714-16.237714-35.108571-36.425143-35.547428h-137.508571v-186.806857c-0.219429-18.797714-4.681143-37.302857-13.165714-54.345143a132.315429 132.315429 0 0 0-35.547429-44.178286l-0.950857-0.731428-192-152.137143 196.534857-155.574857c15.36-12.141714 27.721143-27.282286 36.278857-44.397715 8.557714-17.188571 13.165714-35.84 13.385143-54.857143v-188.854857h132.022857c20.626286 0 37.376-15.872 37.376-35.474285 0-19.382857-16.237714-35.108571-36.425143-35.547429H73.508571A36.498286 36.498286 0 0 0 36.205714-92.452571c0 19.309714 16.237714 35.108571 36.498286 35.547428h135.826286v188.781714c0.292571 18.797714 4.754286 37.302857 13.165714 54.272 8.411429 17.042286 20.553143 32.109714 35.620571 44.251429l0.950858 0.731429 196.461714 155.648-192 151.990857a132.388571 132.388571 0 0 0-36.278857 44.470857 125.952 125.952 0 0 0-13.385143 54.857143V824.905143H73.508571A36.498286 36.498286 0 0 0 36.205714 860.452571C36.205714 879.908571 52.443429 895.561143 72.704 896h876.982857zM738.377143 824.905143H287.817143v-185.270857c0-8.630857 1.974857-17.115429 5.705143-24.941715a60.562286 60.562286 0 0 1 16.091428-20.48l0.950857-0.731428L513.097143 433.005714l202.605714 160.402286 0.950857 0.731429a60.562286 60.562286 0 0 1 15.945143 20.187428 57.782857 57.782857 0 0 1 5.851429 24.649143V824.905143z"  horiz-adv-x="1024" />
      
      <glyph glyph-name="ready" unicode="&#58900;" d="M524.507429 452.169143c-14.262857-5.997714-10.459429-6.948571-27.794286 0.365714L31.597714 657.261714a21.796571 21.796571 0 0 0-6.144 14.482286 21.284571 21.284571 0 0 0 5.339429 14.848l453.485714 204.507429c10.24 5.12 20.845714 7.899429 39.570286-0.219429l461.970286-200.630857a21.869714 21.869714 0 0 0 0.877714-29.476572L524.507429 452.169143z m14.043428-557.494857a21.942857 21.942857 0 0 1 21.430857-22.528l442.733715 244.589714c17.261714 11.410286 21.284571 31.670857 21.284571 61.074286V590.555429c0 5.924571-2.194286 11.702857-6.217143 15.945142a20.626286 20.626286 0 0 1-15.067428 6.582858L559.835429 416.182857c-21.357714-8.777143-21.357714-20.406857-21.357715-32.841143l0.073143-488.594285zM464.164571 416.182857L21.357714 613.083429a20.626286 20.626286 0 0 1-15.067428-6.582858 23.186286 23.186286 0 0 1-6.217143-15.945142v-474.477715c0-4.973714-2.852571-12.288 21.284571-22.528L464.164571-128c11.702857 0 21.211429 10.093714 21.211429 22.528V383.341714c0 12.434286 0 24.064-21.211429 32.841143zM319.634286 299.373714C262.875429 325.485714 206.262857 351.817143 149.650286 378.148571c-9.289143 4.315429-13.970286 6.144-13.970286 13.897143v52.224c-0.292571 6.802286 3.657143 15.872 11.117714 12.8l174.518857-81.188571c16.237714-8.192 11.337143-9.142857 11.995429-40.228572v-25.892571c0.146286-5.12-4.461714-14.628571-13.677714-10.459429z"  horiz-adv-x="1024" />
      
      <glyph glyph-name="start" unicode="&#58902;" d="M972.8 384L51.2-128V896l921.6-512z"  horiz-adv-x="1024" />
      
      <glyph glyph-name="edit" unicode="&#58903;" d="M830.83346 527.220534l-189.66708 199.087716-562.012565-488.439453-46.898379-217.084201 232.904724 14.822141 565.6733 491.613797z m188.335905 188.054309L858.86497 889.633391l-0.358394 0.383994a20.044449 20.044449 0 0 1-13.567762 5.939096 20.223646 20.223646 0 0 1-14.028555-4.838316l-160.304395-139.261562 189.615882-199.113316 157.437245 136.855205a18.022085 18.022085 0 0 1 6.323089 12.543781 17.791689 17.791689 0 0 1-4.787116 13.13257zM0-54.068494h1016.814206V-128H0v73.931506z"  horiz-adv-x="1024" />
      
      <glyph glyph-name="power" unicode="&#58904;" d="M512 896C229.352727 896 0 666.740364 0 384.069818 0 101.37599999999998 229.352727-128 512-128s512 229.376 512 512.069818C1024 666.740364 794.647273 896 512 896z m-42.775273-192a42.821818 42.821818 0 0 0 42.658909 42.658909 42.821818 42.821818 0 0 0 42.635637-42.658909v-319.930182a42.821818 42.821818 0 0 0-42.635637-42.658909 42.821818 42.821818 0 0 0-42.658909 42.658909V704z m26.065455-639.534545c-163.793455 8.378182-297.355636 144.197818-303.080727 308.014545a318.603636 318.603636 0 0 0 123.764363 264.261818 40.238545 40.238545 0 0 0 24.971637 8.727273c21.969455 0 43.124364-17.92 43.124363-43.124364 0-12.8-5.748364-25.227636-15.778909-33.093818-55.179636-43.147636-90.903273-110.033455-90.903273-185.437091 0-138.705455 120.529455-249.320727 262.330182-233.192727 106.914909 12.404364 193.512727 99.141818 205.474909 206.08a235.101091 235.101091 0 0 1-89.134545 212.410182 41.704727 41.704727 0 0 0-15.988364 33.093818c0 35.025455 40.261818 55.924364 68.072727 34.304a318.72 318.72 0 0 0 123.880728-252.811636c-0.116364-181.829818-152.669091-328.657455-336.756364-319.232z"  horiz-adv-x="1024" />
      
      <glyph glyph-name="pie-chart" unicode="&#58905;" d="M905.369147 56.83242l-327.526236 328.345435 327.167836 327.935836A510.719745 510.719745 0 0 0 1023.999488 385.177855c0-124.927938-44.595178-239.30868-118.630341-328.294235zM558.591721 896a508.876546 508.876546 0 0 0 280.575859-116.940742l-280.575859-281.241459V896zM479.07816 352.205072l360.44782-361.318219A509.081345 509.081345 0 0 0 511.999744-127.999488C229.222285-127.999488 0 101.734797 0 385.177855 0 652.851322 204.543898 872.396812 465.458967 896v-510.822145"  horiz-adv-x="1024" />
      
      <glyph glyph-name="copy" unicode="&#58906;" d="M923.127604 871.399674a81.913201 81.913201 0 0 1-26.62179 18.200089A80.326133 80.326133 0 0 1 865.122819 895.999232H386.237766a80.377329 80.377329 0 0 1-31.56218-6.297077 81.964397 81.964397 0 0 1-26.775378-18.251285c-7.679363-7.83295-13.746059-17.150577-17.867317-27.389727-4.146856-10.23915-6.271479-21.246237-6.245881-32.330117v-81.478037h-144.883975c-21.758194 0-42.64606-8.831267-58.030383-24.599558A85.138534 85.138534 0 0 1 76.836247 646.215164v-690.067524c0-22.346945 8.67768-43.746769 24.0876-59.515061a81.913201 81.913201 0 0 1 26.698584-18.200089c9.983171-4.223649 20.657485-6.373871 31.459789-6.348273h521.556711a81.017276 81.017276 0 0 1 58.823918 24.164394c7.756156 7.83295 13.899646 17.150577 18.097697 27.440923 4.223649 10.264748 6.373871 21.297432 6.373871 32.458106v150.592301h100.138889c10.827901-0.153587 21.579009 1.919841 31.613376 6.041098 10.059965 4.146856 19.198407 10.264748 26.928965 18.046502 7.730558 7.781754 13.874048 17.022587 18.0721 27.261738 4.223649 10.213552 6.399469 21.169443 6.476262 32.253323V811.987005c0 22.270152-8.652082 43.669975-24.036405 59.438267zM618.180115 288.049692c0-21.32303-10.392737-31.997344-31.229408-31.997344h-135.310369v-138.638093c0-21.348628-10.418335-31.997344-31.229408-31.997345h-20.836671c-20.836671 0-31.229408 10.648716-31.229408 31.997345V256.052348H232.983286c-20.836671 0-31.229408 10.674314-31.229408 31.997344v21.348628c0 21.32303 10.418335 31.997344 31.229408 31.997344h135.335968V480.033757c0 21.348628 10.418335 31.997344 31.229407 31.997344h20.811073c20.836671 0 31.229408-10.648716 31.229408-31.997344v-138.638093h135.335967c20.836671 0 31.229408-10.674314 31.229408-31.997344v-21.348628z m249.860862-76.588843a25.41869 25.41869 0 0 0-20.811073-25.162712h-83.295487V646.215164c0 22.52613-8.805669 44.079541-24.471568 59.899029a81.862005 81.862005 0 0 1-27.031357 18.123295 80.274937 80.274937 0 0 1-31.792561 6.015501H381.450964v52.475645c0 18.840036 14.923561 34.147566 33.302835 34.147565h419.958744c18.404872 0 33.328434-15.307529 33.328434-34.147565v-571.267785z"  horiz-adv-x="1024" />
      
      <glyph glyph-name="log" unicode="&#58907;" d="M645.416421 152.68378900000005l-7.006316-6.898526-46.026105-122.529684c-8.003368-21.557895 5.335579-33.306947 29.696-26.138947l133.389474 38.184421 14.012631 13.770105a5.200842 5.200842 0 0 0 0.943158 2.45221 6.224842 6.224842 0 0 0 2.074948 1.859369 12.880842 12.880842 0 0 1 6.656 7.194947 10.778947 10.778947 0 0 1-0.997053 9.162105l-110.053053 88.656843a21.557895 21.557895 0 0 1-12.099368 0.053894 18.593684 18.593684 0 0 1-9.593263-6.332631l-0.997053 0.538947zM120.400842-127.46105299999999h-60.362105a65.886316 65.886316 0 0 0-42.496 15.494737C6.305684-102.13052600000003 0-88.92631600000004 0-75.18315800000005V843.183158C0 857.088 6.386526 870.453895 17.731368 880.370526A66.613895 66.613895 0 0 0 60.712421 896H120.724211l-0.350316-1023.434105z m84.399158 0V895.461053h759.161263c15.979789-0.161684 31.258947-5.739789 42.496-15.521685 11.237053-9.754947 17.542737-22.959158 17.542737-36.729263v-318.841263l-171.115789-169.040842L719.494737 225.01052600000003a14.578526 14.578526 0 0 1-1.536-10.778947 16.437895 16.437895 0 0 1 6.54821-9.32379v-1.724631l92.698948-73.162105c4.850526-3.098947 10.698105-4.742737 16.707368-4.742737 6.009263 0 11.856842 1.643789 16.680421 4.742737l2.66779 1.42821 114.391579 112.505263 54.029473 53.948632-1.643789-373.086316c0-13.904842-6.386526-27.270737-17.758316-37.160421A66.613895 66.613895 0 0 0 959.326316-128H204.8v0.565895z"  horiz-adv-x="1024" />
      
      <glyph glyph-name="light" unicode="&#58908;" d="M190.150042 42.68032000000005V262.73792000000003c0 183.54176 144.896 333.76256 321.9456 333.76256 177.07008 0 321.9456-150.2208 321.9456-333.76256v-220.0576c0-16.73216-13.08672-30.3104-29.22496-30.3104H219.375002c-16.13824 0-29.22496 13.57824-29.22496 30.3104zM804.693402-14.192639999999983H219.395482c-30.24896 0-54.84544 25.51808-54.84544 56.85248V262.71744c0 198.656 155.9552 360.32512 347.56608 360.32512s347.5456-161.66912 347.5456-360.32512v-220.03712c-0.1024-31.35488-24.69888-56.87296-54.92736-56.87296zM511.993242 569.9584c-163.40992 0-296.3456-137.8304-296.3456-307.2v-220.0576a3.6864 3.6864 0 0 1 3.60448-3.74784h585.33888a3.6864 3.6864 0 0 1 3.60448 3.72736V262.71744c0.12288 169.41056-132.8128 307.22048-296.22272 307.22048z m365.83424-697.9584H146.240922c-14.09024 0-25.6 11.93984-25.6 26.56256s11.50976 26.56256 25.6 26.56256h731.68896c14.1312 0 25.62048-11.93984 25.62048-26.56256-0.1024-14.62272-11.61216-26.56256-25.72288-26.56256zM511.952282 660.8486399999999c-14.09024 0-25.6 11.93984-25.6 26.56256V869.43744c0 14.62272 11.50976 26.56256 25.6 26.56256 14.1312 0 25.62048-11.93984 25.62048-26.56256v-182.02624c0-14.62272-11.38688-26.56256-25.6-26.56256z m-259.76832 0c-6.5536 0-13.08672 2.58048-18.04288 7.72096L110.011802 797.2864a27.17696 27.17696 0 0 0 0 37.53984 24.90368 24.90368 0 0 0 36.22912 0l124.1088-128.67584c10.0352-10.42432 10.0352-27.136 0-37.56032a25.92768 25.92768 0 0 0-18.16576-7.72096z m519.65952 0c-6.5536 0-13.1072 2.58048-18.04288 7.72096a27.17696 27.17696 0 0 0 0 37.56032l124.1088 128.67584a24.90368 24.90368 0 0 0 36.2496 0c10.0352-10.40384 10.0352-27.136 0-37.53984l-124.14976-128.69632a25.92768 25.92768 0 0 0-18.16576-7.72096z"  horiz-adv-x="1024" />
      
      <glyph glyph-name="warn-light" unicode="&#58909;" d="M459.450182 896h105.146182v-136.541091h-105.146182V896zM186.181818 797.207273l91.042909 51.2 70.097455-118.225455-91.042909-51.2L186.181818 797.184zM0 578.606545l52.573091 88.669091 121.390545-68.258909-52.549818-88.669091L0 578.606545zM849.989818 599.1330909999999l121.413818 68.282182 52.573091-88.669091-121.413818-68.282182-52.573091 88.669091zM676.631273 730.251636l70.097454 118.248728 91.042909-51.2-70.074181-118.225455-91.066182 51.2zM862.487273-25.600000000000023h122.647272c4.654545 0 9.099636-1.792 12.381091-4.980364 3.304727-3.211636 5.12-7.540364 5.12-12.078545v-68.258909c0-4.538182-1.815273-8.866909-5.12-12.078546a17.757091 17.757091 0 0 0-12.381091-5.003636H38.865455a17.757091 17.757091 0 0 0-12.357819 5.003636 16.849455 16.849455 0 0 0-5.143272 12.078546v68.258909c0 4.538182 1.861818 8.866909 5.12 12.078545a17.757091 17.757091 0 0 0 12.404363 5.003637h122.647273V349.88218199999994c0 90.530909 36.933818 177.338182 102.656 241.338182C329.914182 655.243636 419.048727 691.2 512 691.2c92.951273 0 182.109091-35.956364 247.831273-99.956364 65.722182-64.023273 102.632727-150.830545 102.632727-241.361454V-25.600000000000023zM539.508364 366.94109100000003h111.266909c1.652364 0 3.281455-0.488727 4.654545-1.373091a8.610909 8.610909 0 0 0 3.211637-3.584 8.331636 8.331636 0 0 0-1.210182-9.029818l-178.548364-202.752a8.843636 8.843636 0 0 0-10.123636-2.117818 8.680727 8.680727 0 0 0-4.049455 3.560727 8.354909 8.354909 0 0 0-1.070545 5.213091l20.852363 141.824h-111.290181a8.936727 8.936727 0 0 0-4.654546 1.349818 8.610909 8.610909 0 0 0-3.211636 3.584 8.308364 8.308364 0 0 0 1.210182 9.053091l178.571636 202.752a8.983273 8.983273 0 0 0 10.123636 2.094545 8.680727 8.680727 0 0 0 4.026182-3.560727c0.930909-1.559273 1.303273-3.397818 1.093818-5.189818l-20.852363-141.824z"  horiz-adv-x="1024" />
      
      <glyph glyph-name="info" unicode="&#58911;" d="M512 896c282.786909 0 512-229.213091 512-512s-229.213091-512-512-512S0 101.21309099999996 0 384 229.213091 896 512 896z m14.219636-341.341091h-56.878545a42.658909 42.658909 0 1 1 0-85.317818h14.196364v-312.901818h-42.65891a42.658909 42.658909 0 0 1-42.449454-38.562909l-0.209455-4.096a42.682182 42.682182 0 0 1 42.658909-42.658909h170.682182a42.658909 42.658909 0 1 1 0 85.317818h-42.682182V512a42.658909 42.658909 0 0 1-38.562909 42.472727l-4.096 0.186182zM512 696.878545a56.901818 56.901818 0 1 1 0-113.803636 56.901818 56.901818 0 0 1 0 113.803636z"  horiz-adv-x="1024" />
      
      <glyph glyph-name="restart" unicode="&#58912;" d="M512 896C229.352727 896 0 666.740364 0 384.069818 0 101.37599999999998 229.352727-128 512-128s512 229.376 512 512.069818C1024 666.740364 794.647273 896 512 896zM757.783273 408.110545l44.962909-12.078545v-0.162909a30.114909 30.114909 0 0 1 36.910545 21.178182l27.089455 91.252363a30.021818 30.021818 0 0 1-21.178182 36.933819 28.578909 28.578909 0 0 1-37.515636-21.201455l-3.909819-43.52a319.604364 319.604364 0 0 1-502.178909 155.229091 319.627636 319.627636 0 0 1-111.336727-168.797091 30.091636 30.091636 0 0 1 28.509091-39.633455 30.766545 30.766545 0 0 1 29.672727 25.76291 260.026182 260.026182 0 0 0 250.647273 190.743272 226.466909 226.466909 0 0 0 54.225455-5.678545 259.397818 259.397818 0 0 0 188.881454-164.165818l-30.813091 12.730181a30.021818 30.021818 0 0 1-15.755636-57.786181l61.789091-20.805819zM297.285818 342.57454499999994l-101.189818 29.672728 0.465455-0.069818a30.021818 30.021818 0 0 1-36.910546-21.178182l-31.069091-93.905455a26.065455 26.065455 0 0 1 21.434182-31.232 30.114909 30.114909 0 0 1 36.584727 19.618909l8.727273 42.379637a319.394909 319.394909 0 0 1 502.085818-155.601455 319.418182 319.418182 0 0 1 111.266909 168.913455 30.114909 30.114909 0 0 1-29.672727 35.84c-5.026909 0-9.774545-1.210182-13.684364-2.210909-6.213818-1.629091-10.309818-2.676364-10.030545 2.65309a259.793455 259.793455 0 0 0-394.775273-172.776727 259.770182 259.770182 0 0 0-104.494545 129.512727l30.603636-8.727272a24.762182 24.762182 0 0 1 31.860364 20.200727 30.021818 30.021818 0 0 1-21.178182 36.933818z m157.556364 185.134546l172.032-125.533091 0.046545 0.093091a27.461818 27.461818 0 0 0 0-42.402909l-172.032-125.486546a18.967273 18.967273 0 0 0-21.876363-0.721454 26.181818 26.181818 0 0 0-11.124364 21.946182V507.159273a26.158545 26.158545 0 0 0 11.054545 21.178182 18.990545 18.990545 0 0 0 21.899637-0.628364z"  horiz-adv-x="1024" />
      
      <glyph glyph-name="volume" unicode="&#58913;" d="M950.054625 51.354553a56.41609 56.41609 0 0 0-32.173801-9.274754 57.567438 57.567438 0 0 0-39.657569 14.90357 46.053951 46.053951 0 0 0-16.694557 35.563884c0 15.095462 6.460346 27.760298 19.508965 38.058473a8.954935 8.954935 0 0 0 2.302698 1.535132 8.954935 8.954935 0 0 1 2.302697 1.535132l1.151349 1.023421a346.300124 346.300124 0 0 1 108.098856 104.452918c13.816185 20.916169 24.562107 43.239543 32.237766 66.906157s11.513488 48.228721 11.513488 73.558393c0 51.490875-14.583751 98.504284-43.751254 141.040224a368.687461 368.687461 0 0 1-109.250205 104.900666c-16.118883 10.362139-24.11436 24.050396-24.11436 41.1927 0 13.752221 5.500889 25.585528 16.630593 35.563884a57.567438 57.567438 0 0 0 39.657569 14.903571 55.648524 55.648524 0 0 0 34.540463-11.321597c28.399936-17.845906 54.816994-38.570184 79.315137-62.300761 24.562107-23.666614 45.670168-49.380069 63.324183-77.140367 17.654014-27.824262 31.406236-57.503475 41.384591-89.037638 9.978356-31.534163 14.967534-64.155712 14.967534-97.736718 0-34.348572-4.989178-67.289939-14.967534-98.824103-9.978356-31.534163-23.922469-61.405268-41.960266-89.549348-18.037797-28.144081-39.273786-54.049428-63.835893-77.716042a466.296251 466.296251 0 0 0-80.53045-62.236797z m-64.411567 462.074639c16.118883-19.828784 28.975611-39.977388 38.570184-60.189955 9.594573-20.276531 14.327896-44.774674 14.327896-73.558394 0-27.504443-4.989178-52.194477-14.90357-74.134068a249.011153 249.011153 0 0 0-37.99451-59.678244 150.123087 150.123087 0 0 0-19.572929-20.08464 39.593605 39.593605 0 0 0-26.417058-8.763043 49.571961 49.571961 0 0 0-35.116137 13.432402 42.152158 42.152158 0 0 0-10.87385 48.356648h-1.151348c3.837829 7.547731 8.37926 14.711679 13.752221 21.619771 5.372961 6.844129 10.55403 13.880149 15.543208 21.108061a96.137622 96.137622 0 0 1 17.845906 58.207077 92.74754 92.74754 0 0 1-5.181069 32.301729 124.537558 124.537558 0 0 1-12.664837 25.265709 334.210962 334.210962 0 0 1-15.543208 21.555808 89.997095 89.997095 0 0 0-12.600873 21.619771 42.152158 42.152158 0 0 0 10.87385 48.356648c9.594573 8.954935 21.299952 13.432402 35.116137 13.432403 10.745922 0 19.572929-2.942336 26.417058-8.763044 6.908093-5.820708 13.432402-12.536909 19.572929-20.084639z m-371.501869-611.302233a13857.889631 13857.889631 0 0 1-246.132781 193.490557 16101.804417 16101.804417 0 0 1-131.125832 97.736718 312.783082 312.783082 0 0 0-25.329673-1.023421c-6.908093-0.639638-14.199968-1.023421-21.811663-1.023421h-19.572929c-20.724278 0-37.610726 5.69278-50.595382 17.014376A52.130514 52.130514 0 0 0 0 248.938794V508.312086h1.151349L0 509.335507c0 19.189146 6.716201 34.98821 20.148603 47.333227 13.432402 12.345017 30.062996 18.549508 50.019708 18.549508h65.562916a19965.091245 19965.091245 0 0 0 192.083353 144.046524c24.498143 18.549508 48.676467 36.523341 72.471008 54.049428 23.730577 17.462123 45.222421 33.453078 64.411568 47.844938 19.189146 14.39186 35.244065 26.417058 48.292684 36.011631 13.048619 9.594573 21.108061 15.415281 24.178324 17.526087 23.026975 15.095462 41.576483 21.93959 55.776452 20.532386a44.774674 44.774674 0 0 0 33.32515-18.549508c8.059441-10.873849 13.624294-24.306252 16.630593-40.105315 3.134227-15.7351 4.669359-30.190923 4.669359-43.239543v-833.576508c0-13.048619-2.68648-26.928768-8.059441-41.704411-5.372961-14.711679-13.624294-26.417058-24.753999-34.98821-11.065741-8.571152-25.073818-12.153126-41.960266-10.809886-16.886449 1.407204-36.459378 11.321596-58.654823 29.871104z"  horiz-adv-x="1151" />
      
      <glyph glyph-name="bar-chart" unicode="&#58914;" d="M750.592 896H1024v-1024h-273.408V896zM375.4496 384h273.4592v-512h-273.408V384zM0 595.1488h273.408V-128H0V595.1488z"  horiz-adv-x="1024" />
      
      <glyph glyph-name="delete" unicode="&#58915;" d="M756.46179 750.324387c45.760365-6.705378 93.337835 1.868292 130.703682-4.70912 60.425179-10.6723 91.111241-63.752275 84.533828-141.913435h-73.196109c-2.047444-138.688711-1.126094-275.995398-1.126094-415.19597 0-70.227316 5.681656-144.012065-1.100501-207.022142-6.398261-59.452644-48.703565-95.717989-100.222365-104.598775-50.93016-8.778414-118.444613-2.303374-174.621346-2.303375-117.855973 0-237.196342-2.405746-352.620976 0-56.176734 1.151687-97.688653 19.527493-122.79543 54.641152-25.081184 35.113658-22.573066 88.219226-22.573066 151.229303V603.701832H53.5744c-11.312126 71.890864 18.862074 123.614408 69.869013 140.659376 37.57059 12.540592 87.5794 2.405746 140.812934 5.835214-4.350818 77.444554-0.204744 136.155 64.187357 144.216809 28.868955 3.583026 67.309709 0 102.551332 0h205.000291c39.08058 0 79.082509 3.86455 99.121864-13.999395 27.640489-24.569323 20.448843-81.513849 21.344599-130.089449zM334.022988 817.813247v-69.792234h352.595382V821.268308H335.123489c-1.305245-0.204744-1.202873-1.791513-1.100501-3.455061z m-68.742919-222.147631V152.52204c0-37.826521-8.394519-118.495799 13.564314-134.900941 8.701635-6.47504 31.274701-7.524355 41.716664 0 22.675438 16.30277 14.664815 94.694267 14.664814 133.774847V599.095084H266.482942c-1.407617-0.102372-1.305245-1.791513-1.202873-3.455061z m209.555853 0v-429.118587c0-33.834006-7.601134-113.991423 5.656063-137.178722 8.701635-15.38142 38.287195-22.265949 52.977604-10.493148 19.911389 16.123618 11.209754 100.964563 11.209753 136.07822V599.197456h-68.717326c-1.330838-0.204744-1.228466-1.868292-1.126094-3.557433z m211.782448 0v-448.850825c0-45.990702-8.701635-116.525134 20.244099-129.065726 12.668557-5.528098 35.036879-1.254059 40.59057 3.455061 18.938853 16.098025 10.134846 102.193029 10.134845 136.052627V599.120677h-69.869013c-1.305245-0.102372-1.202873-1.791513-1.100501-3.455061z"  horiz-adv-x="1024" />
      
      <glyph glyph-name="write" unicode="&#58916;" d="M349.345684 97.17221099999995c22.770526 27.136 49.583158 52.035368 75.021474 76.934736l207.979789 203.452632c64.673684 63.245474 129.374316 126.517895 193.967158 189.763368 14.470737 14.120421 28.240842 31.366737 44.382316 43.654737 16.815158 12.719158 28.025263 4.742737 41.148632-8.192 11.560421-11.425684 22.770526-23.174737 34.088421-34.70821 2.586947-2.694737 17.515789-13.904842 17.515789-17.785263L963.098947 822.298947C963.098947 862.908632 928.660211 896 886.406737 896H76.692211C34.411789 896 0 862.908632 0 822.298947v-855.201684c0-40.636632 34.411789-73.728 76.692211-73.728l201.135157-0.943158 39.909053 143.845053c0.107789 0 9.431579 34.384842 31.609263 60.901053z m83.644632 371.873684H155.055158c-13.123368 0-23.767579 10.24-23.767579 22.851368 0 12.611368 10.644211 22.851368 23.767579 22.851369h277.935158c13.123368 0 23.767579-10.24 23.767579-22.851369 0.134737-12.611368-10.644211-22.851368-23.767579-22.851368z m193.536 120.589473H155.055158c-13.123368 0-23.767579 10.24-23.767579 22.851369 0 12.611368 10.644211 22.824421 23.767579 22.824421H626.526316c13.096421 0 23.767579-10.24 23.767579-22.824421 0-12.611368-10.671158-22.851368-23.767579-22.851369z m131.610947 120.697264H155.055158c-13.123368 0-23.767579 10.24-23.767579 22.851368 0 12.584421 10.644211 22.824421 23.767579 22.824421h603.082105c13.123368 0 23.767579-10.24 23.767579-22.824421 0-12.611368-10.644211-22.851368-23.767579-22.851368zM1014.784 396.153263l-110.645895 106.361263c-11.776 11.317895-32.390737 11.317895-44.193684 0L396.934737 57.66736800000001a14.821053 14.821053 0 0 1-4.042105-6.682947l-46.295579-159.582316a14.955789 14.955789 0 0 1 3.584-14.443789c3.045053-3.125895 7.275789-4.958316 11.66821-4.958316 0.997053 0 1.886316 0.107789 2.910316 0.215579l178.849684 32.229053a15.952842 15.952842 0 0 1 8.272842 4.203789L1014.918737 353.54947400000003a29.372632 29.372632 0 0 1-0.134737 42.576842zM943.157895 307.900632c-5.928421-5.712842-15.252211-6.036211-20.857263-0.646737l-110.430316 106.145684c-5.605053 5.389474-5.281684 14.336 0.673684 20.048842 5.928421 5.712842 15.36 6.036211 20.857263 0.646737l110.430316-106.172632c5.605053-5.254737 5.254737-14.309053-0.673684-20.021894z"  horiz-adv-x="1024" />
      
      <glyph glyph-name="unrecognized" unicode="&#58917;" d="M530.870857 896h-31.451428v-80.749714a25.526857 25.526857 0 0 1-1.316572-1.901715L277.942857 376.173714H102.4v-31.378285h159.744L148.918857 119.954286a18.578286 18.578286 0 0 1 0-19.017143c3.437714-5.705143 8.630857-9.508571 15.579429-9.508572h292.205714a65.316571 65.316571 0 0 1-20.333714-47.177142c0-17.188571 6.290286-51.638857 64.585143-150.308572l14.189714-21.942857 12.580571 21.942857c45.714286 73.581714 66.194286 122.148571 66.194286 150.308572A65.024 65.024 0 0 1 573.732571 91.428571h285.769143a20.333714 20.333714 0 0 1 15.579429 9.508572 18.578286 18.578286 0 0 1 0 19.017143l-112.128 224.841143h179.126857v31.378285h-194.706286l-216.502857 434.102857V896z m-31.451428-157.257143L317.659429 376.246857h48.274285a146.285714 146.285714 0 0 0 133.485715 153.6V738.742857z m31.451428-209.700571V726.308571l175.469714-350.061714h-48.274285a146.285714 146.285714 0 0 1-127.195429 152.868572z m-31.451428-296.009143v-102.692572h31.451428V233.033143a135.753143 135.753143 0 0 1 106.788572 76.068571c6.582857 11.190857 11.776 23.186286 15.286857 35.693715h69.046857l107.958857-215.332572H194.048L302.08 344.795429h69.046857a146.285714 146.285714 0 0 1 52.955429-77.604572c20.48-18.505143 46.665143-30.866286 75.337143-34.157714zM31.451429 617.252571H0V867.766857h234.788571v-31.305143H31.451429V617.325714z m203.190857-726.454857H0v250.514286h31.451429v-219.209143h203.337142v-31.305143zM1024 617.252571h-31.451429V836.461714h-203.337142V867.766857H1024V617.325714z m0-726.454857h-234.788571v31.305143h203.337142v219.209143H1024v-250.514286zM471.332571 58.514286a31.085714 31.085714 0 0 1-3.437714-14.262857c0-12.507429 7.899429-42.276571 47.250286-111.177143 39.424 67.291429 47.250286 97.060571 47.250286 111.177143a31.890286 31.890286 0 0 1-3.437715 14.628571 42.496 42.496 0 0 0 0.292572-5.266286c0-9.362286-3.145143-28.16-29.988572-73.581714l-14.116571-23.405714-14.189714 23.405714c-26.770286 47.030857-29.915429 64.219429-29.915429 73.581714a40.96 40.96 0 0 0 0.292571 4.900572z m31.232-4.900572c0 6.290286 9.435429 10.971429 12.580572 10.971429 3.145143 0 12.580571-3.072 12.580571-10.971429 0-1.462857-1.536-10.971429-12.580571-32.841143-10.971429 21.942857-12.580571 31.305143-12.580572 32.914286z"  horiz-adv-x="1024" />
      
      <glyph glyph-name="error" unicode="&#58918;" d="M512 896a512 512 0 1 1 0-1024A512 512 0 0 1 512 896z m0-785.993143a41.106286 41.106286 0 1 0 0.073143 82.139429A41.106286 41.106286 0 0 0 512 110.006857z m40.96 182.345143a41.106286 41.106286 0 0 0-81.92 0V637.805714a41.106286 41.106286 0 0 0 81.92 0v-345.380571z"  horiz-adv-x="1024" />
      
      <glyph glyph-name="ongoing" unicode="&#58919;" d="M512 896a512 512 0 1 1 0-1024A512 512 0 0 1 512 896z m178.980571-614.4h-201.142857a25.6 25.6 0 0 0-29.257143 25.307429v384a25.746286 25.746286 0 0 0 51.419429 0v-358.4h178.980571a25.526857 25.526857 0 1 0 0-50.980572z"  horiz-adv-x="1024" />
      
      <glyph glyph-name="add" unicode="&#58920;" d="M444.074667 896H581.973333v-442.026667H1024v-137.898666H581.973333V-128H444.074667V316.074667H0V453.973333h444.074667V896z"  horiz-adv-x="1024" />
      
      <glyph glyph-name="import" unicode="&#58921;" d="M382.698633 370.83081500000003a9.386143 9.386143 0 0 0 13.055271-3.669128l71.846655-128.931468c25.854556 85.072583 70.310741 195.573081 135.416439 307.182849C672.986425 665.555693 788.094665 822.56026 942.454046 895.089544a9.386143 9.386143 0 0 0 12.713957-5.119714l28.585071-68.860155a10.068771 10.068771 0 0 0-4.7784-12.969943c-132.259282-62.716498-234.482908-203.33798-297.370064-311.449277a1417.990162 1417.990162 0 0 1-124.750368-280.986978l138.232282 82.768712a9.386143 9.386143 0 0 0 13.1406-3.5838l36.179313-65.276356a10.1541 10.1541 0 0 0-3.5838-13.567242l-235.50685-140.621482a43.773556 43.773556 0 0 0-34.728728-4.7784 45.650784 45.650784 0 0 0-27.902442 22.185428l-126.286283 226.973994a10.1541 10.1541 0 0 0 3.413143 13.567242l62.887156 37.544571z m555.574313 19.7109h75.601113c5.546357 0 10.068771-5.205043 10.068771-11.946v-449.937545c0-31.315585-21.332142-56.65817-47.783999-56.65817H47.783999c-26.451856 0-47.783999 25.342585-47.783999 56.65817V839.28466C0 870.600245 21.332142 895.94283 47.783999 895.94283h372.544533c5.631686 0 10.068771-5.3757 10.068771-11.946v-89.594997c0-6.740957-4.607743-11.946-10.068771-11.946H95.482669v-797.395479h832.806835V378.68104400000004c0 6.655628 4.522414 11.946 9.983442 11.945999z"  horiz-adv-x="1024" />
      
      <glyph glyph-name="end" unicode="&#59506;" d="M512-128A512 512 0 1 0 512 896a512 512 0 0 0 0-1024zM358.4 537.6v-307.2h307.2V537.6H358.4z"  horiz-adv-x="1024" />
      
      <glyph glyph-name="down" unicode="&#58891;" d="M545.1776 763.5968c0-16.1792-9.728-30.6176-24.6784-36.7616-14.9504-6.144-32.0512-2.56-43.4176 9.0112-11.264 11.5712-14.4384 28.7744-8.0896 43.52 6.4512 14.848 21.0944 24.2688 37.2736 23.9616 10.5472 0 20.5824-4.1984 28.0576-11.6736 7.4752-7.4752 11.6736-17.5104 11.6736-28.0576h-0.8192z m0-156.9792c0-16.1792-9.728-30.6176-24.6784-36.7616-14.9504-6.144-32.0512-2.56-43.4176 9.0112-11.264 11.5712-14.4384 28.7744-8.0896 43.52 6.4512 14.848 21.0944 24.2688 37.2736 23.9616 10.5472 0 20.5824-4.1984 28.0576-11.6736 7.4752-7.4752 11.6736-17.5104 11.6736-28.0576h-0.8192z m0-156.672c0-16.1792-9.728-30.6176-24.6784-36.7616-14.9504-6.144-32.0512-2.56-43.4176 9.0112-11.264 11.5712-14.4384 28.7744-8.0896 43.52 6.4512 14.848 21.0944 24.2688 37.2736 23.9616 10.5472 0 20.5824-4.1984 28.0576-11.6736 7.4752-7.4752 11.6736-17.5104 11.6736-28.0576h-0.8192z m0-156.8768c0-16.1792-9.728-30.6176-24.6784-36.7616-14.9504-6.144-32.0512-2.56-43.4176 9.0112-11.264 11.5712-14.4384 28.7744-8.0896 43.52 6.4512 14.848 21.0944 24.2688 37.2736 23.9616 21.9136 0 39.7312-17.8176 39.7312-39.7312h-0.8192z m0 0M533.2992-28.672l247.1936 247.1936c10.8544 15.6672 7.5776 37.0688-7.5776 48.64-11.5712 15.0528-32.9728 18.432-48.64 7.5776L512 62.3616 299.1104 274.6368c-15.6672 10.8544-37.0688 7.5776-48.64-7.5776-15.0528-11.5712-18.432-32.9728-7.5776-48.64L490.0864-28.672c5.7344-5.3248 13.6192-7.68 21.2992-6.4512 7.9872-1.4336 16.0768 0.9216 21.9136 6.4512z m0 0"  horiz-adv-x="1024" />
      
      <glyph glyph-name="folder" unicode="&#58886;" d="M462.154064 601.859456l28.868303-34.89857H906.854226v-457.081456h-266.165749v-96.227675h266.165749a96.227675 96.227675 0 0 1 96.227675 96.227675V566.960886a96.227675 96.227675 0 0 1-96.227675 96.227675H536.313525L464.52768 749.793468a96.227675 96.227675 0 0 1-74.159461 34.89857H117.979748a96.227675 96.227675 0 0 1-96.227676-96.227674v-578.584934a96.227675 96.227675 0 0 1 96.227676-96.227675h266.101597v96.227675H117.979748V688.464364h272.452623l71.721693-86.604908zM384.081345 270.258889h256.607132l-128.303566 224.531241-128.303566-224.531241zM464.271073 13.651755v256.607134h96.227675v-256.607134h-96.227675z"  horiz-adv-x="1024" />
      
      <glyph glyph-name="image" unicode="&#59053;" d="M981.333333 768a42.666667 42.666667 0 0 0 42.666667-42.666667v-682.666666a42.666667 42.666667 0 0 0-42.666667-42.666667H42.666667a42.666667 42.666667 0 0 0-42.666667 42.666667V725.333333a42.666667 42.666667 0 0 0 42.666667 42.666667h938.666666z m-260.992-339.498667l-248.32-227.413333a42.666667 42.666667 0 0 0-54.698666-2.474667l-133.802667 102.229334L85.333333 104.661333v-17.621333l853.248-0.042667v168.618667l-218.24 172.885333zM938.666667 682.666667H85.333333v-457.941334l164.565334 162.858667a42.666667 42.666667 0 0 0 51.541333 6.528l4.352-2.986667 134.912-102.997333 248.832 227.84a42.666667 42.666667 0 0 0 55.296 1.962667L938.666667 364.416V682.666667zM234.666667 597.333333a64 64 0 1 0 0-128 64 64 0 0 0 0 128z"  horiz-adv-x="1024" />
      
      <glyph glyph-name="koutu" unicode="&#59032;" d="M648.193 765.346h-13.6193c-8.17166 0-13.6193-5.44779-13.6193-13.6193s5.44779-13.6193 13.6193-13.6193h24.5152c5.44779 0 10.8955 5.44779 13.6193 10.8955 2.72388 8.17166-2.72388 13.6193-10.8955 16.3434H648.193Zm-57.2016 0h-13.6193c-8.17166 0-13.6193-5.44779-13.6193-13.6193s5.44779-13.6193 13.6193-13.6193h13.6193c8.17166 0 13.6193 5.44779 13.6193 13.6193s-5.44779 13.6193-13.6193 13.6193Zm-57.2016 0h-13.6193c-8.17166 0-13.6193-5.44779-13.6193-13.6193s5.44779-13.6193 13.6193-13.6193h13.6193c8.17166 0 13.6193 5.44779 13.6193 13.6193s-5.44779 13.6193-13.6193 13.6193Zm-57.2016 0h-13.6193c-8.17166 0-13.6193-5.44779-13.6193-13.6193s5.44779-13.6193 13.6193-13.6193h13.6193c8.17166 0 13.6193 5.44779 13.6193 13.6193s-5.44779 13.6193-13.6193 13.6193Zm-57.2016 0h-13.6193c-8.17166 0-13.6193-5.44779-13.6193-13.6193s5.44779-13.6193 13.6193-13.6193h13.6193c8.17166 0 13.6193 5.44779 13.6193 13.6193s-5.44779 13.6193-13.6193 13.6193Zm-57.2016 0H348.566c-8.17166 0-13.6193-5.44779-13.6193-13.6193s5.44779-13.6193 13.6193-13.6193h13.6193c8.17166 0 13.6193 5.44779 13.6193 13.6193s-5.44779 13.6193-13.6193 13.6193Zm-57.2016 0h-13.6193c-8.17166 0-13.6193-5.44779-13.6193-13.6193s5.44779-13.6193 13.6193-13.6193h13.6193c8.17166 0 13.6193 5.44779 13.6193 13.6193s-5.44779 13.6193-13.6193 13.6193Zm-57.2016 0h-13.6193c-8.17166 0-13.6193-5.44779-13.6193-13.6193s5.44779-13.6193 13.6193-13.6193h13.6193c8.17166 0 13.6193 5.44779 13.6193 13.6193s-5.44779 13.6193-13.6193 13.6193Zm-57.2016 0h-13.6193c-8.17166 0-13.6193-5.44779-13.6193-13.6193s5.44779-13.6193 13.6193-13.6193h13.6193c8.17166 0 13.6193 5.44779 13.6193 13.6193s-5.44779 13.6193-13.6193 13.6193Zm-51.754-2.72388h-2.72388-2.72388c-2.72388 0-5.44779-2.72388-5.44779-2.72388-5.44779-2.72388-8.17166-10.8955-5.44779-19.0672 2.72388-5.44779 8.17166-8.17166 10.8955-8.17166 2.72388 0 5.44779 0 5.44779 2.72388 2.72388 0 5.44779 2.72388 8.17166 2.72388 8.17166 2.72388 10.8955 10.8955 8.17166 16.3434-5.44779 5.44779-10.8955 8.17166-16.3434 8.17166Zm-38.1346-27.2388c-5.44779 0-8.17166-2.72388-10.8955-5.44779-2.72388-2.72388-5.44779-8.17166-5.44779-10.8955-2.72388-8.17166 0-13.6193 8.17166-19.0672h5.44779c5.44779 0 10.8955 2.72388 13.6193 8.17166 0 2.72388 2.72388 5.44779 5.44779 8.17166 2.72388 5.44779 2.72388 13.6193-2.72388 19.0672-8.17166-2.72388-10.8955 0-13.6193 0Zm-10.8955-49.03c-8.17166 0-13.6193-5.44779-13.6193-13.6193v-13.6193c0-8.17166 5.44779-13.6193 13.6193-13.6193s13.6193 5.44779 13.6193 13.6193v13.6193c0 8.17166-5.44779 13.6193-13.6193 13.6193Zm0-57.2016c-8.17166 0-13.6193-5.44779-13.6193-13.6193v-13.6193c0-8.17166 5.44779-13.6193 13.6193-13.6193s13.6193 5.44779 13.6193 13.6193v13.6193c0 8.17166-5.44779 13.6193-13.6193 13.6193Zm0-57.2016c-8.17166 0-13.6193-5.44779-13.6193-13.6193v-13.6193c0-8.17166 5.44779-13.6193 13.6193-13.6193s13.6193 5.44779 13.6193 13.6193v13.6193c0 8.17166-5.44779 13.6193-13.6193 13.6193Zm0-57.2016c-8.17166 0-13.6193-5.44779-13.6193-13.6193v-13.6193c0-8.17166 5.44779-13.6193 13.6193-13.6193s13.6193 5.44779 13.6193 13.6193v13.6193c0 8.17166-5.44779 13.6193-13.6193 13.6193Zm0-57.2016c-8.17166 0-13.6193-5.44779-13.6193-13.6193v-13.6193c0-8.17166 5.44779-13.6193 13.6193-13.6193s13.6193 5.44779 13.6193 13.6193v13.6193c0 8.17166-5.44779 13.6193-13.6193 13.6193Zm0-57.2016c-8.17166 0-13.6193-5.44779-13.6193-13.6193v-13.6193c0-8.17166 5.44779-13.6193 13.6193-13.6193s13.6193 5.44779 13.6193 13.6193v13.6193c0 8.17166-5.44779 13.6193-13.6193 13.6193Zm0-57.2016c-8.17166 0-13.6193-5.44779-13.6193-13.6193v-13.6193c0-8.17166 5.44779-13.6193 13.6193-13.6193s13.6193 5.44779 13.6193 13.6193V329.52200000000004c0 8.17166-5.44779 13.6193-13.6193 13.6193Zm0-57.2016c-8.17166 0-13.6193-5.44779-13.6193-13.6193v-13.6193c0-8.17166 5.44779-13.6193 13.6193-13.6193s13.6193 5.44779 13.6193 13.6193v13.6193c0 8.17166-5.44779 13.6193-13.6193 13.6193Zm0-57.2016c-8.17166 0-13.6193-5.44779-13.6193-13.6193v-13.6193c0-8.17166 5.44779-13.6193 13.6193-13.6193s13.6193 5.44779 13.6193 13.6193v13.6193c0 8.17166-5.44779 13.6193-13.6193 13.6193Zm5.44779-49.03h-5.44779c-8.17166-2.72388-10.8955-10.8955-5.44779-19.0672 2.72388-2.72388 2.72388-5.44779 5.44779-8.17166 2.72388-2.72388 8.17166-5.44779 10.8955-5.44779 2.72388 0 5.44779 0 8.17166 2.72388 5.44779 5.44779 8.17166 13.6193 2.72388 19.0672-2.72388 2.72388-2.72388 5.44779-5.44779 8.17166 0 0-5.44779 2.72388-10.8955 2.72388Zm32.6866-35.4106c-5.44779 0-10.8955-2.72388-13.6193-8.17166-2.72388-5.44779 0-13.6193 5.44779-19.0672h2.72388c2.72388 0 2.72388 0 5.44779-2.72388h2.72388c5.44779 0 10.8955 2.72388 13.6193 10.8955 2.72388 8.17166-2.72388 13.6193-8.17166 16.3434-2.72388 0-5.44779 2.72388-8.17166 2.72388 5.44779 0 2.72388 0 0 0Zm65.3734-5.44779h-13.6193c-8.17166 0-13.6193-5.44779-13.6193-13.6193s5.44779-13.6193 13.6193-13.6193h13.6193c8.17166 0 13.6193 5.44779 13.6193 13.6193s-5.44779 13.6193-13.6193 13.6193Zm57.2016 0h-13.6193c-8.17166 0-13.6193-5.44779-13.6193-13.6193s5.44779-13.6193 13.6193-13.6193h13.6193c8.17166 0 13.6193 5.44779 13.6193 13.6193s-5.44779 13.6193-13.6193 13.6193Zm57.2016 0H294.089c-8.17166 0-13.6193-5.44779-13.6193-13.6193s5.44779-13.6193 13.6193-13.6193h13.6193c8.17166 0 13.6193 5.44779 13.6193 13.6193s-5.44779 13.6193-13.6193 13.6193Zm57.2016 0h-13.6193c-8.17166 0-13.6193-5.44779-13.6193-13.6193s5.44779-13.6193 13.6193-13.6193h13.6193c8.17166 0 13.6193 5.44779 13.6193 13.6193s-5.44779 13.6193-13.6193 13.6193Zm57.2016 0h-13.6193c-8.17166 0-13.6193-5.44779-13.6193-13.6193s5.44779-13.6193 13.6193-13.6193h13.6193c8.17166 0 13.6193 5.44779 13.6193 13.6193s-5.44779 13.6193-13.6193 13.6193Zm57.2016 0h-13.6193c-8.17166 0-13.6193-5.44779-13.6193-13.6193s5.44779-13.6193 13.6193-13.6193h13.6193c8.17166 0 13.6193 5.44779 13.6193 13.6193s-5.44779 13.6193-13.6193 13.6193Zm57.2016 0h-13.6193c-8.17166 0-13.6193-5.44779-13.6193-13.6193s5.44779-13.6193 13.6193-13.6193h13.6193c8.17166 0 13.6193 5.44779 13.6193 13.6193s-5.44779 13.6193-13.6193 13.6193Zm57.2016 0h-13.6193c-8.17166 0-13.6193-5.44779-13.6193-13.6193s5.44779-13.6193 13.6193-13.6193h13.6193c8.17166 0 13.6193 5.44779 13.6193 13.6193s-5.44779 13.6193-13.6193 13.6193Zm54.4779 0h-10.8955c-8.17166 0-13.6193-5.44779-13.6193-13.6193s5.44779-13.6193 13.6193-13.6193h10.8955c8.17166 0 13.6193 5.44779 13.6193 13.6193s-5.44779 13.6193-13.6193 13.6193Zm46.3059 16.3434c-2.72388 0-5.44779 0-8.17166-2.72388-2.72388-2.72388-5.44779-2.72388-8.17166-5.44779-5.44779-2.72388-8.17166-13.6193-5.44779-19.0672 2.72388-5.44779 8.17166-5.44779 10.8955-5.44779 2.72388 0 5.44779 0 8.17166 2.72388 0 0 2.72388 0 2.72388 2.72388l2.72388 2.72388s2.72388 0 2.72388 2.72388c5.44779 5.44779 5.44779 13.6193 0 19.0672 0 2.72388-2.72388 2.72388-5.44779 2.72388Zm21.7911 40.8582c-5.44779 0-13.6193-5.44779-13.6193-10.8955 0-2.72388 0-5.44779-2.72388-8.17166-2.72388-8.17166 2.72388-13.6193 8.17166-16.3434h5.44779c5.44779 0 10.8955 2.72388 13.6193 8.17166 0 2.72388 0 2.72388 2.72388 5.44779v2.72388c0 10.8955-5.44779 19.0672-13.6193 19.0672Zm0 57.2016c-8.17166 0-13.6193-5.44779-13.6193-13.6193v-13.6193c0-8.17166 5.44779-13.6193 13.6193-13.6193s13.6193 5.44779 13.6193 13.6193v13.6193c0 5.44779-5.44779 13.6193-13.6193 13.6193Zm0 57.2016c-8.17166 0-13.6193-5.44779-13.6193-13.6193v-13.6193c0-8.17166 5.44779-13.6193 13.6193-13.6193s13.6193 5.44779 13.6193 13.6193v13.6193c0 5.44779-5.44779 13.6193-13.6193 13.6193Zm0 57.2016c-8.17166 0-13.6193-5.44779-13.6193-13.6193v-13.6193c0-8.17166 5.44779-13.6193 13.6193-13.6193s13.6193 5.44779 13.6193 13.6193v13.6193c0 5.44779-5.44779 13.6193-13.6193 13.6193Zm0 57.2016c-8.17166 0-13.6193-5.44779-13.6193-13.6193v-13.6193c0-8.17166 5.44779-13.6193 13.6193-13.6193s13.6193 5.44779 13.6193 13.6193V411.241c0 5.44779-5.44779 13.6193-13.6193 13.6193Zm0 57.2016c-8.17166 0-13.6193-5.44779-13.6193-13.6193v-13.6193c0-8.17166 5.44779-13.6193 13.6193-13.6193s13.6193 5.44779 13.6193 13.6193v13.6193c0 5.44779-5.44779 13.6193-13.6193 13.6193Zm0 57.2016c-8.17166 0-13.6193-5.44779-13.6193-13.6193v-13.6193c0-8.17166 5.44779-13.6193 13.6193-13.6193s13.6193 5.44779 13.6193 13.6193v13.6193c0 5.44779-5.44779 13.6193-13.6193 13.6193Zm0 57.2016c-8.17166 0-13.6193-5.44779-13.6193-13.6193v-13.6193c0-8.17166 5.44779-13.6193 13.6193-13.6193s13.6193 5.44779 13.6193 13.6193v13.6193c0 5.44779-5.44779 13.6193-13.6193 13.6193Zm0 57.2016c-8.17166 0-13.6193-5.44779-13.6193-13.6193v-13.6193c0-8.17166 5.44779-13.6193 13.6193-13.6193s13.6193 5.44779 13.6193 13.6193v13.6193c0 5.44779-5.44779 13.6193-13.6193 13.6193Zm0 54.4779c-2.72388 0-2.72388 0 0 0-8.17166 0-13.6193-8.17166-13.6193-16.3434v-8.17166c0-8.17166 5.44779-13.6193 13.6193-13.6193s13.6193 5.44779 13.6193 13.6193v13.6193c-2.72388 5.44779-8.17166 10.8955-13.6193 10.8955Zm-24.5152 40.8582c-2.72388 0-8.17166-2.72388-10.8955-5.44779-5.44779-5.44779-5.44779-13.6193 0-19.0672l5.44779-5.44779c2.72388-2.72388 5.44779-5.44779 10.8955-5.44779 2.72388 0 5.44779 0 8.17166 2.72388 5.44779 5.44779 5.44779 13.6193 2.72388 19.0672l-8.17166 8.17166c0 2.72388-2.72388 5.44779-8.17166 5.44779ZM566.478 2.6539999999999963c-46.3059 0-81.7166 35.4106-81.7166 81.7166s35.4106 81.7166 81.7166 81.7166 81.7166-35.4106 81.7166-81.7166-35.4106-81.7166-81.7166-81.7166Zm0 136.193c-29.9628 0-54.4779-24.5152-54.4779-54.4779s24.5152-54.4779 54.4779-54.4779 54.4779 24.5152 54.4779 54.4779-24.5152 54.4779-54.4779 54.4779ZM866.106 2.6539999999999963c-46.3059 0-81.7166 35.4106-81.7166 81.7166s35.4106 81.7166 81.7166 81.7166 81.7166-35.4106 81.7166-81.7166-35.4106-81.7166-81.7166-81.7166Zm0 136.193c-29.9628 0-54.4779-24.5152-54.4779-54.4779s24.5152-54.4779 54.4779-54.4779 54.4779 24.5152 54.4779 54.4779-24.5152 54.4779-54.4779 54.4779ZM819.798 127.95399999999995c-5.44779-5.44779-13.6193-2.72388-19.0672 2.72388l-272.388 408.582c-5.44779 5.44779-2.72388 13.6193 2.72388 19.0672 5.44779 5.44779 13.6193 2.72388 19.0672-2.72388l275.114-405.86c2.72388-8.17166 0-16.3434-5.44779-21.7911ZM612.785 127.95399999999995c5.44779-5.44779 13.6193-2.72388 19.0672 2.72388l275.114 405.86c5.44779 5.44779 2.72388 13.6193-2.72388 19.0672-5.44779 5.44779-13.6193 2.72388-19.0672-2.72388L610.059 147.01999999999998c-5.44779-5.44779-2.72388-13.6193 2.72388-19.0672Z"  horiz-adv-x="1024" />
      
      <glyph glyph-name="koutu1" unicode="&#58899;" d="M884.2 184.6H856c-4.1 0-7.5 3.4-7.5 7.5s3.4 7.5 7.5 7.5h28.2c4.1 0 7.5-3.4 7.5-7.5s-3.3-7.5-7.5-7.5z m-56.4 0h-28.2c-4.1 0-7.5 3.4-7.5 7.5s3.4 7.5 7.5 7.5h28.2c4.1 0 7.5-3.4 7.5-7.5s-3.3-7.5-7.5-7.5z m-56.3 0h-28.2c-4.1 0-7.5 3.4-7.5 7.5s3.4 7.5 7.5 7.5h28.2c4.1 0 7.5-3.4 7.5-7.5s-3.3-7.5-7.5-7.5z m-56.3 0H687c-4.1 0-7.5 3.4-7.5 7.5s3.4 7.5 7.5 7.5h28.2c4.1 0 7.5-3.4 7.5-7.5s-3.4-7.5-7.5-7.5z m-56.3 0h-28.2c-4.1 0-7.5 3.4-7.5 7.5s3.4 7.5 7.5 7.5h28.2c4.1 0 7.5-3.4 7.5-7.5s-3.4-7.5-7.5-7.5z m-56.4 0h-28.2c-4.1 0-7.5 3.4-7.5 7.5s3.4 7.5 7.5 7.5h28.2c4.1 0 7.5-3.4 7.5-7.5s-3.3-7.5-7.5-7.5z m-56.3 0H518c-4.1 0-7.5 3.4-7.5 7.5s3.4 7.5 7.5 7.5h28.2c4.1 0 7.5-3.4 7.5-7.5s-3.3-7.5-7.5-7.5z m-56.3 0h-28.2c-4.1 0-7.5 3.4-7.5 7.5s3.4 7.5 7.5 7.5h28.2c4.1 0 7.5-3.4 7.5-7.5s-3.4-7.5-7.5-7.5z m-56.3 0h-28.2c-4.1 0-7.5 3.4-7.5 7.5s3.4 7.5 7.5 7.5h28.2c4.1 0 7.5-3.4 7.5-7.5s-3.4-7.5-7.5-7.5z m-49.5 12c-4.1 0-7.5 3.4-7.5 7.5v28.2c0 4.1 3.4 7.5 7.5 7.5s7.5-3.4 7.5-7.5v-28.2c0-4.1-3.4-7.5-7.5-7.5z m512.1 9.4c-4.1 0-7.5 3.4-7.5 7.5v28.2c0 4.1 3.4 7.5 7.5 7.5s7.5-3.4 7.5-7.5v-28.2c0-4.2-3.4-7.5-7.5-7.5z m-512.1 46.9c-4.1 0-7.5 3.4-7.5 7.5v28.2c0 4.1 3.4 7.5 7.5 7.5s7.5-3.4 7.5-7.5v-28.2c0-4.1-3.4-7.5-7.5-7.5z m512.1 9.4c-4.1 0-7.5 3.4-7.5 7.5V298c0 4.1 3.4 7.5 7.5 7.5s7.5-3.4 7.5-7.5v-28.2c0-4.1-3.4-7.5-7.5-7.5z m-512.1 47c-4.1 0-7.5 3.4-7.5 7.5V345c0 4.1 3.4 7.5 7.5 7.5s7.5-3.4 7.5-7.5v-28.2c0-4.2-3.4-7.5-7.5-7.5z m512.1 9.3c-4.1 0-7.5 3.4-7.5 7.5v28.2c0 4.1 3.4 7.5 7.5 7.5s7.5-3.4 7.5-7.5v-28.2c0-4.1-3.4-7.5-7.5-7.5z m-512.1 47c-4.1 0-7.5 3.4-7.5 7.5v28.2c0 4.1 3.4 7.5 7.5 7.5s7.5-3.4 7.5-7.5v-28.2c0-4.2-3.4-7.5-7.5-7.5z m512.1 9.4c-4.1 0-7.5 3.4-7.5 7.5v28.2c0 4.1 3.4 7.5 7.5 7.5s7.5-3.4 7.5-7.5v-28.2c0-4.2-3.4-7.5-7.5-7.5z m-512.1 46.9c-4.1 0-7.5 3.4-7.5 7.5v28.2c0 4.1 3.4 7.5 7.5 7.5s7.5-3.4 7.5-7.5v-28.2c0-4.1-3.4-7.5-7.5-7.5z m512.1 9.4c-4.1 0-7.5 3.4-7.5 7.5V467c0 4.1 3.4 7.5 7.5 7.5s7.5-3.4 7.5-7.5v-28.2c0-4.2-3.4-7.5-7.5-7.5z m-512.1 46.9c-4.1 0-7.5 3.4-7.5 7.5v28.2c0 4.1 3.4 7.5 7.5 7.5s7.5-3.4 7.5-7.5v-28.2c0-4.1-3.4-7.5-7.5-7.5z m512.1 9.4c-4.1 0-7.5 3.4-7.5 7.5v28.2c0 4.1 3.4 7.5 7.5 7.5s7.5-3.4 7.5-7.5v-28.2c0-4.1-3.4-7.5-7.5-7.5z m-512.1 47c-4.1 0-7.5 3.4-7.5 7.5v28.2c0 4.1 3.4 7.5 7.5 7.5s7.5-3.4 7.5-7.5v-28.2c0-4.2-3.4-7.5-7.5-7.5z m512.1 9.3c-4.1 0-7.5 3.4-7.5 7.5v28.2c0 4.1 3.4 7.5 7.5 7.5s7.5-3.4 7.5-7.5v-28.2c0-4.1-3.4-7.5-7.5-7.5z m-512.1 47c-4.1 0-7.5 3.4-7.5 7.5v28.2c0 4.1 3.4 7.5 7.5 7.5s7.5-3.4 7.5-7.5v-28.2c0-4.2-3.4-7.5-7.5-7.5z m512.1 9.4c-4.1 0-7.5 3.4-7.5 7.5V636c0 4.1 3.4 7.5 7.5 7.5s7.5-3.4 7.5-7.5v-28.2c0-4.2-3.4-7.5-7.5-7.5z m-512.1 46.9c-4.1 0-7.5 3.4-7.5 7.5v28.2c0 4.1 3.4 7.5 7.5 7.5s7.5-3.4 7.5-7.5v-28.2c0-4.1-3.4-7.5-7.5-7.5z m512.1 9.4c-4.1 0-7.5 3.4-7.5 7.5v28.2c0 4.1 3.4 7.5 7.5 7.5 4 0 7.3-3.1 7.5-7.1v-28.6c0-4.2-3.4-7.5-7.5-7.5z m-21.4 40.1h-28.2c-4.1 0-7.5 3.4-7.5 7.5s3.4 7.5 7.5 7.5h28.2c4.1 0 7.5-3.4 7.5-7.5s-3.3-7.5-7.5-7.5z m-56.3 0h-28.2c-4.1 0-7.5 3.4-7.5 7.5s3.4 7.5 7.5 7.5h28.2c4.1 0 7.5-3.4 7.5-7.5s-3.4-7.5-7.5-7.5z m-56.3 0H734c-4.1 0-7.5 3.4-7.5 7.5s3.4 7.5 7.5 7.5h28.2c4.1 0 7.5-3.4 7.5-7.5s-3.4-7.5-7.5-7.5z m-56.4 0h-28.2c-4.1 0-7.5 3.4-7.5 7.5s3.4 7.5 7.5 7.5h28.2c4.1 0 7.5-3.4 7.5-7.5s-3.3-7.5-7.5-7.5z m-56.3 0h-28.2c-4.1 0-7.5 3.4-7.5 7.5s3.4 7.5 7.5 7.5h28.2c4.1 0 7.5-3.4 7.5-7.5s-3.3-7.5-7.5-7.5z m-56.3 0H565c-4.1 0-7.5 3.4-7.5 7.5s3.4 7.5 7.5 7.5h28.2c4.1 0 7.5-3.4 7.5-7.5s-3.4-7.5-7.5-7.5z m-56.3 0h-28.2c-4.1 0-7.5 3.4-7.5 7.5s3.4 7.5 7.5 7.5h28.2c4.1 0 7.5-3.4 7.5-7.5s-3.4-7.5-7.5-7.5z m-56.4 0h-28.2c-4.1 0-7.5 3.4-7.5 7.5s3.4 7.5 7.5 7.5h28.2c4.1 0 7.5-3.4 7.5-7.5s-3.3-7.5-7.5-7.5z m-56.3 0h-28.1c-4.1 0-7.5 3.4-7.5 7.5s3.3 7.5 7.5 7.5h28.2c4.1 0 7.5-3.4 7.5-7.5s-3.4-7.5-7.6-7.5zM694.6 64.3H206.5c-6.6 0-12 5.4-12 12V564.4c0 6.6 5.4 12 12 12h488.1c6.6 0 12-5.4 12-12v-488.1c0-6.6-5.4-12-12-12zM694.6 94.3H266.1c-19.6 0-39.2-0.3-58.8 0-0.7 0-1.4 0-2.1 0.1 2.7-0.4 5.3-0.7 8-1.1-1.3 0.2-2.4 0.5-3.6 1l7.2-3c-4 2.1 4.8-4.7 2.6-2.2-1.9 2.1 4.4-6.8 2.2-2.6l3-7.2c-0.5 1.2-0.8 2.3-1 3.6 0.4-2.7 0.7-5.3 1.1-8-0.9 16.4-0.1 33.1-0.1 49.5V241.2 382.6 504.7c0 19.6-0.3 39.2 0 58.8 0 0.7 0 1.4 0.1 2.1-0.4-2.7-0.7-5.3-1.1-8 0.2 1.3 0.5 2.4 1 3.6l-3-7.2c2.1 4-4.7-4.8-2.2-2.6 2.1 1.9-6.8-4.4-2.6-2.2l-7.2-3c1.2 0.5 2.3 0.8 3.6 1-2.7-0.4-5.3-0.7-8-1.1 16.4 0.9 33.1 0.1 49.5 0.1H635c19.6 0 39.2 0.3 58.8 0 0.7 0 1.4 0 2.1-0.1-2.7 0.4-5.3 0.7-8 1.1 1.3-0.2 2.4-0.5 3.6-1l-7.2 3c4-2.1-4.8 4.7-2.6 2.2 1.9-2.1-4.4 6.8-2.2 2.6l-3 7.2c0.5-1.2 0.8-2.3 1-3.6-0.4 2.7-0.7 5.3-1.1 8 0.9-16.4 0.1-33.1 0.1-49.5V135.8c0-19.6 0.3-39.2 0-58.8 0-0.7 0-1.4-0.1-2.1 0.4 2.7 0.7 5.3 1.1 8-0.2-1.3-0.5-2.4-1-3.6l3 7.2c-2.1-4 4.7 4.8 2.2 2.6-2.1-1.9 6.8 4.4 2.6 2.2l7.2 3c-1.2-0.5-2.3-0.8-3.6-1 2.7 0.4 5.3 0.7 8 1.1-0.4-0.1-0.9-0.1-1.3-0.1-15.6-0.8-30.8-13.2-30-30 0.7-15.5 13.2-30.9 30-30 23.7 1.3 41.5 18.7 42 42.7 0.1 2.2 0 4.4 0 6.6v31.3 115 144.5 127c0 20.7 0.3 41.5 0 62.2-0.3 19.4-13.1 37.6-32.7 41.7-4.7 1-8.1 1.1-12.5 1.1H209.8c-1.5 0-3.1 0-4.6-0.1-23.2-1.1-40.3-19.8-40.7-42.7-0.1-6.6 0-13.3 0-19.9v-466.8c0.4-23.2 17.6-41.2 40.7-42.7 4.9-0.3 9.9-0.1 14.9-0.1h474.6c15.7 0 30.7 13.8 30 30-0.8 16.4-13.3 30.2-30.1 30.2zM206.2 192.1l36.5 41.1c41.8 47.1 114.8 48.9 158.9 3.8 24.8-25.4 65-27.6 92.4-5l88.6 72.9c33.9 27.9 81.2 32.6 120 12.1l3.8-2M223.9 174.4c8.5 9.6 17.1 19.2 25.6 28.9 3.6 4 7.1 8.1 10.7 12.1 3.2 3.6 6.6 7 10.2 10.2 0.8 0.7 5.3 4.2 1.8 1.6-3.4-2.5 0.6 0.4 1.4 1 2.6 1.9 5.3 3.6 8.1 5.2 2.5 1.5 5.1 2.9 7.8 4.1 1.2 0.6 2.5 1.1 3.7 1.7 0.3 0.2-5.4-2.1-2.9-1.2 0.8 0.3 1.7 0.7 2.5 1 5.6 2.1 11.5 3.7 17.4 4.8 1.2 0.2 2.7 0.8 3.9 0.7-0.1 0-6.8-0.8-2.7-0.4 0.7 0.1 1.3 0.1 2 0.2 2.9 0.3 5.7 0.4 8.6 0.5 2.9 0.1 5.8 0 8.6-0.2 1.5-0.1 3.1-0.3 4.6-0.4 4-0.3-6.1 1-0.7 0.1 5.9-1 11.8-2.4 17.5-4.3 1.3-0.4 2.5-0.9 3.8-1.4 0.6-0.2 1.3-0.5 1.9-0.7 2.5-0.9-3.1 1.4-2.9 1.2 2.8-1.5 5.8-2.7 8.5-4.2 2.6-1.4 5.2-3 7.7-4.6 1.2-0.8 2.3-1.6 3.4-2.4 4.6-3.3-3.8 3.2 0.5-0.3 4.5-3.7 8.3-7.9 12.7-11.7 24.2-21.3 57.9-29.9 89.1-20.6 16.7 5 29.7 14.9 42.9 25.7 23.8 19.6 47.6 39.2 71.5 58.8 2.9 2.4 5.7 4.7 8.6 7.1 0.2 0.1 0.4 0.3 0.5 0.4 0.6 0.5 2.8 2.2 0 0s-0.6-0.5 0 0c1.1 0.7 2.1 1.5 3.2 2.3 2.6 1.7 5.2 3.4 8 4.9 1.6 0.9 3.2 1.7 4.8 2.5 1 0.5 6.3 2.8 2.6 1.3-3.9-1.6 1.9 0.7 2.7 1 1.4 0.5 2.9 1 4.3 1.5 3.4 1.1 6.8 2 10.3 2.7 1.5 0.3 3 0.6 4.5 0.8 4.6 0.8-5.3-0.5-0.6-0.1 3.5 0.3 7.1 0.6 10.6 0.6 3.3 0 6.6-0.1 9.9-0.4 1-0.1 6.2-0.7 2-0.1-4.4 0.6 2.3-0.4 3.5-0.7 6.9-1.4 13.3-4 20-6 0.1 0-4.8 2.2-2.4 1 0.7-0.4 1.4-0.7 2.1-1l4.2-2.1c1.3-0.7 2.5-1.3 3.8-2 11.5-6.1 27.7-3.3 34.2 9 6.1 11.6 3.4 27.7-9 34.2-11.9 6.3-24.3 11.8-37.5 14.7-17.2 3.8-33.9 4-51.2 1.5-25.2-3.6-47.5-15.5-67-31.5-22.7-18.7-45.5-37.4-68.2-56.1-4.7-3.9-9.4-7.7-14.1-11.6-1.3-1-2.5-2.1-3.8-3.1-0.3-0.2-0.6-0.5-0.9-0.7l-0.1-0.1c-0.4-0.3-12.5-9.4 1.4 1 3.4 2.6-0.5-0.3-1-0.7-2.6-1.8-5.3-3.4-8-4.8-0.9-0.4-5.4-2.5-1.5-0.8 4 1.8-2-0.6-3-0.9-2.9-0.9-5.8-1.5-8.8-2.1-4.4-0.8 5.6 0.4 1.1 0.2-1.8-0.1-3.7-0.2-5.5-0.3-1.4 0-2.8 0-4.1 0.1-1.1 0.1-6.9 0.7-2.2 0.1 4.5-0.6-0.4 0.1-1.5 0.4-1.8 0.4-3.6 0.8-5.4 1.3-1.3 0.4-2.7 0.8-4 1.3-5.1 1.8 4-2 0.2-0.1-3 1.5-5.9 3-8.6 4.8l-1.8 1.2c-2.2 1.3 2.2-1.8 2.2-1.8-1 1.2-2.7 2.2-3.9 3.3-2.1 2-4.1 4.1-6.2 6.1-5.8 5.4-12.2 10.4-18.8 14.8-11.5 7.7-24.7 13.5-38 17-26.3 7.1-55.8 6.2-81.3-3.7-21.9-8.6-40.3-21.6-55.9-39.2-10.2-11.5-20.4-22.9-30.6-34.4-0.9-1-1.7-1.9-2.6-2.9-8.7-9.8-10.4-25.9 0-35.4 9.7-8.6 26.3-10.3 35.6 0.1z"  horiz-adv-x="1024" />
      
    </font>
</defs>
</svg>
